<svg width="228" height="128" viewBox="0 0 228 128" fill="none" xmlns="http://www.w3.org/2000/svg">
<path d="M0 15.0002C0 11.6865 2.68629 9.00024 6 9.00024H222C225.314 9.00024 228 11.6865 228 15.0002V121C228 124.314 225.314 127 222 127H6C2.6863 127 0 124.314 0 121V15.0002Z" fill="#8A1538"/>
<path d="M120.624 60.887C120.612 60.9388 120.583 61.0877 120.542 61.2341C120.178 62.5517 120.107 62.5762 118.762 62.6128C116.745 62.6681 114.729 62.795 112.711 62.8464C110.164 62.912 107.611 62.8656 105.068 62.9856C100.996 63.1755 96.9119 62.7616 92.8471 63.272C92.2481 63.3468 91.6295 63.2389 91.0203 63.2521C88.052 63.3143 85.0856 63.405 82.1175 63.4547C78.4665 63.5146 74.8234 63.9386 71.1598 63.5912C70.0005 63.4811 68.8074 63.7731 67.6294 63.781C64.1241 63.8067 60.6186 63.779 57.1137 63.7807C54.4508 63.7815 51.788 63.7975 49.1252 63.8021C48.2119 63.8036 47.2952 63.8344 46.3854 63.7787C44.2956 63.653 42.2073 63.5037 40.123 63.3227C38.9112 63.218 37.7046 63.0403 36.4968 62.885C35.9495 62.8146 35.6184 62.4657 35.7609 61.9536C36.2956 60.0343 35.9855 58.0896 35.967 56.1602C35.9412 53.5347 35.7688 50.9116 35.6958 48.2871C35.6422 46.3447 35.6941 44.3979 35.6147 42.4572C35.5472 40.8259 35.3065 39.2009 35.239 37.5697C35.1724 35.9742 35.2268 34.3731 35.2336 32.774C35.2341 32.546 35.3385 32.2951 35.2758 32.0931C34.95 31.0486 35.8297 30.4617 36.1712 29.6768C36.2507 29.4938 36.4882 29.3503 36.6836 29.25C39.1551 27.9816 41.6346 26.731 44.1035 25.4591C44.5585 25.2252 45.0522 25.0547 45.0452 24.3272C45.0396 23.8562 45.5708 23.8909 45.9593 23.9278C47.6247 24.0871 49.2879 24.28 50.957 24.3974C54.8309 24.6722 58.7086 24.9128 62.5848 25.1617C63.6499 25.2306 64.7164 25.2683 65.7807 25.3432C68.5896 25.5415 71.3949 25.835 74.2072 25.9381C77.5931 26.0632 80.9837 26.0086 84.3727 26.0738C86.4665 26.1147 88.5583 26.2804 90.6513 26.3083C94.0787 26.3532 97.5079 26.324 100.936 26.3412C102.718 26.3502 104.5 26.3907 106.281 26.4134C108.448 26.4403 110.615 26.4558 112.782 26.4892C114.718 26.5198 116.653 26.5931 118.589 26.602C119.729 26.6071 120.874 26.455 122.01 26.508C122.875 26.549 123.732 26.7925 124.589 26.9613C125.126 27.0675 125.311 27.3925 125.283 27.9527C125.215 29.3577 125.138 30.7701 125.197 32.1729C125.246 33.3085 125.462 34.4398 125.651 35.5658C126.196 38.8267 126.834 42.074 127.296 45.347C127.556 47.1875 127.538 49.0657 127.649 50.9267C127.668 51.2309 127.726 51.533 127.736 51.8379C127.753 52.3393 127.74 52.7776 127.152 53.0641C126.771 53.2502 126.508 53.6945 126.219 54.0441C124.618 55.9801 122.897 57.8247 121.684 60.0589C121.517 60.3678 121.089 60.5358 120.624 60.887ZM36.327 31.682C36.146 34.6918 36.3348 37.7261 36.5556 40.7595C36.6582 42.1652 36.7258 43.5733 36.7798 44.9807C36.8246 46.1582 36.8037 47.3393 36.8539 48.516C36.9191 50.0349 37.0628 51.5506 37.1053 53.0695C37.172 55.5056 37.2015 57.9434 37.2096 60.3804C37.213 61.4263 37.5154 61.5895 38.298 61.6729C40.6802 61.9269 43.0728 62.0841 45.4616 62.2604C46.213 62.3157 46.9691 62.3067 47.7226 62.3361C48.3311 62.3595 48.9397 62.4248 49.5481 62.4215C51.5674 62.4073 53.5878 62.3669 55.6064 62.3436C56.4055 62.3348 57.2043 62.331 58.0031 62.3462C59.45 62.3725 60.8977 62.4613 62.3441 62.4393C65.1195 62.397 67.8943 62.276 70.6689 62.2246C73.2558 62.1772 75.8441 62.2178 78.4306 62.1449C81.4789 62.0596 84.525 61.8849 87.5724 61.7676C88.6345 61.7265 89.6994 61.7307 90.7632 61.7345C91.5989 61.7378 92.4359 61.7986 93.2712 61.7878C95.6648 61.7577 98.0582 61.701 100.452 61.6621C102.316 61.6309 104.18 61.6187 106.043 61.5806C107.642 61.5482 109.241 61.4968 110.841 61.4454C113.123 61.3711 115.407 61.2907 117.688 61.2072C117.839 61.2011 117.987 61.1359 118.137 61.1222C118.762 61.0659 118.986 60.696 118.96 60.1105C118.931 59.4633 118.88 58.8151 118.898 58.1693C118.964 55.6567 119.131 53.1442 119.118 50.6333C119.095 46.0677 118.983 41.503 118.874 36.9384C118.858 36.2204 118.704 35.5001 118.549 34.7935C118.45 34.3384 118.208 33.9177 117.67 33.8503C116.701 33.7293 115.728 33.5463 114.756 33.5438C113.048 33.5403 111.34 33.6876 109.631 33.7077C107.202 33.7376 104.773 33.7042 102.344 33.7085C99.4145 33.7138 96.4844 33.7405 93.5559 33.7398C92.4936 33.739 91.4301 33.6884 90.3674 33.6545C87.2127 33.555 84.059 33.3798 80.9047 33.3755C78.6298 33.3725 76.3619 33.5252 74.0818 33.3151C71.8867 33.1128 69.6749 33.0761 67.4699 32.977C65.6931 32.8976 63.9149 32.8189 62.1375 32.7646C61.1159 32.7329 60.0911 32.7876 59.0714 32.735C57.6442 32.6606 56.2206 32.5215 54.7956 32.4137C54.7214 32.4082 54.6457 32.4453 54.57 32.4482C52.6818 32.5184 50.7931 32.582 48.9057 32.6575C48.0347 32.692 47.1641 32.7482 46.2947 32.7933C45.9566 32.811 45.6115 32.8733 45.2805 32.8312C42.3425 32.4673 39.4056 32.0809 36.327 31.682ZM38.2157 30.1894C38.6833 30.3438 38.9926 30.5131 39.314 30.5419C42.0026 30.7817 44.6909 31.0264 47.3836 31.2079C50.7236 31.4332 54.0741 31.0547 57.4245 31.4558C59.6065 31.7172 61.8354 31.7672 64.0342 31.6779C67.2765 31.5464 70.493 31.8235 73.7197 31.9734C76.5333 32.1035 79.359 32.2275 82.167 32.1022C84.4975 31.998 86.8018 32.1959 89.1183 32.2418C89.8391 32.2553 90.5587 32.38 91.2798 32.3886C93.5612 32.4141 95.8444 32.3881 98.1246 32.4208C100.176 32.4503 102.228 32.5419 104.281 32.5843C107.321 32.646 110.363 32.6716 113.403 32.7459C114.46 32.7714 115.514 32.9203 116.571 32.9713C117.651 33.0238 118.707 32.969 119.478 32.0229C120.438 30.8437 121.434 29.693 122.378 28.5009C122.743 28.0395 122.624 27.6896 122.031 27.603C121.173 27.4767 120.294 27.4884 119.424 27.4509C119.009 27.4331 118.593 27.4541 118.178 27.4275C117.31 27.3717 116.443 27.2352 115.578 27.2449C114.59 27.2546 113.603 27.4562 112.617 27.4491C110.378 27.4338 108.138 27.3436 105.898 27.2811C105.219 27.2621 104.538 27.1818 103.862 27.2172C100.746 27.383 97.6327 27.5127 94.5124 27.2787C93.0782 27.1716 91.6355 27.1251 90.1971 27.1232C87.5347 27.119 84.8728 27.1975 82.2111 27.1872C79.6233 27.176 77.0338 27.0159 74.4481 27.0713C72.1151 27.1214 69.8154 26.8287 67.5028 26.6598C65.7545 26.5327 64.0033 26.2069 62.2639 26.2679C59.6265 26.3607 57.0182 26.1158 54.4043 25.9298C52.2447 25.7773 50.0995 25.4278 47.9392 25.2813C47.1776 25.2302 46.2999 25.3462 45.6335 25.6904C43.3426 26.8765 41.1199 28.1903 38.8822 29.4763C38.6496 29.6125 38.4947 29.886 38.2157 30.1894ZM120.577 58.8555C121.328 58.6775 121.586 58.111 121.951 57.6253C123.294 55.8324 124.681 54.0725 126.034 52.2864C126.18 52.0925 126.277 51.8113 126.282 51.5684C126.302 50.6176 126.335 49.66 126.254 48.7141C126.051 46.3648 125.838 44.0148 125.535 41.6769C125.284 39.7545 124.872 37.8559 124.579 35.9386C124.288 34.0243 123.851 32.1178 124.102 30.1555C124.13 29.9316 124.117 29.6952 124.085 29.4714C124.019 29.0261 123.738 28.8727 123.364 29.108C123.077 29.2885 122.812 29.5242 122.588 29.7799C121.911 30.5528 121.271 31.3584 120.591 32.1279C119.915 32.8924 119.711 33.7672 119.76 34.7722C119.98 39.3243 120.24 43.8771 120.336 48.4326C120.396 51.2392 120.169 54.0523 120.111 56.8634C120.099 57.5274 120 58.2518 120.577 58.8555Z" fill="white"/>
<path d="M90.7072 52.7481C90.8207 53.0227 90.933 53.2969 91.0481 53.5707C91.5529 54.7758 92.3074 55.655 93.7439 55.6665C94.3485 55.6708 94.9656 55.7833 95.5559 55.7005C97.5912 55.4114 98.756 54.1071 99.383 52.2386C99.853 50.8381 99.8703 49.4491 99.0682 48.1649C98.3021 46.937 97.0175 46.381 95.727 45.9309C95.3894 45.8131 94.8655 46.0826 94.4838 46.2824C94.0892 46.4907 93.7776 46.8506 93.4057 47.1094C92.7848 47.5422 92.1813 47.4 91.6778 46.6899C92.4919 45.7719 93.1955 44.716 94.5314 44.4179C95.1953 44.2694 95.4624 43.7984 95.4727 43.1603C95.5269 40.0122 93.2575 37.531 89.5841 38.4116C88.5142 38.6682 87.5848 40.0008 87.4705 41.2879C87.2957 43.2576 87.1319 45.2283 86.9426 47.1957C86.7456 49.2404 86.5097 51.2799 86.3191 53.3242C86.274 53.8102 86.3447 54.3064 86.356 54.7983C86.3656 55.211 86.3679 55.6226 86.3735 56.0973C85.8338 56.1613 85.3675 56.2178 84.7513 56.2908C84.7386 55.834 84.6784 55.4325 84.7234 55.0428C84.9754 52.8895 85.2848 50.7424 85.5158 48.5872C85.8436 45.5206 86.1299 42.4492 86.4123 39.3778C86.4843 38.5952 86.8016 38.099 87.612 37.9367C87.9378 37.8718 88.2743 37.7281 88.5448 37.5347C89.1995 37.0649 89.9307 36.8854 90.7052 36.9281C92.763 37.0394 94.6487 37.5301 95.706 39.5465C96.3017 40.6839 96.5051 41.9188 96.3729 43.1874C96.2561 44.309 96.3099 44.4535 97.2507 45.0177C98.224 45.6027 99.2675 46.1057 99.8721 47.1548C100.451 48.1587 100.961 49.2031 100.747 50.3878C100.567 51.3919 100.337 52.414 99.9325 53.343C99.1238 55.2048 97.5438 56.1273 95.6 56.4733C95.0772 56.5669 94.5427 56.6111 94.0113 56.6347C92.0531 56.721 90.9909 55.4182 90.0438 53.9935C89.6648 53.4247 89.8596 53.1073 90.7072 52.7481Z" fill="white"/>
<path d="M74.9768 47.437C75.2529 47.8565 75.3837 48.1786 75.6158 48.3896C76.848 49.5153 77.6137 50.9751 78.5203 52.3382C79.1497 53.2852 79.8376 54.1932 80.4799 55.1317C80.7074 55.4642 80.8764 55.8357 81.1186 56.2732C80.6321 56.5487 80.2489 56.7646 79.7962 57.0221C79.5707 56.7296 79.3641 56.5143 79.2184 56.2646C78.2404 54.5876 77.3001 52.8888 76.2967 51.2275C75.5159 49.9364 74.3659 49.0915 72.9024 48.678C72.3247 48.5152 71.7587 48.3055 71.1597 48.1077C70.5114 49.3416 70.7704 50.5809 70.6825 51.7729C70.6212 52.5996 70.5524 53.4263 70.511 54.2546C70.4901 54.6711 70.5321 55.0894 70.526 55.5071C70.5207 55.9149 70.4914 56.3224 70.4689 56.8132C69.9728 56.8371 69.5686 56.8557 69.0379 56.8809C69.0107 56.437 68.9358 56.0687 68.9767 55.7145C69.3063 52.8805 69.581 50.0361 70.0244 47.2182C70.4945 44.2353 70.6199 41.2401 70.7004 38.2352C70.7245 37.3518 70.9182 37.076 71.7811 36.8664C73.7299 36.394 75.535 36.4258 77.3224 37.698C78.618 38.6202 79.4834 39.6781 79.9608 41.1353C80.3073 42.1942 80.1905 43.17 79.7706 44.2308C79.0452 46.063 77.6157 46.7943 75.8716 47.1961C75.6525 47.2454 75.4364 47.3123 74.9768 47.437ZM71.2595 46.5495C72.2485 46.895 73.1891 47.099 74.1876 46.7707C75.1606 46.4503 76.1566 46.1947 77.1204 45.8523C77.5007 45.718 77.9414 45.5008 78.1514 45.1873C78.8144 44.1928 79.2602 43.1114 78.992 41.8576C78.4274 39.2166 75.1367 37.1831 72.4951 37.8413C71.9496 37.9769 71.6719 38.2111 71.6383 38.839C71.5151 41.1515 71.3184 43.4601 71.164 45.7712C71.1472 46.0217 71.2249 46.2819 71.2595 46.5495Z" fill="white"/>
<path d="M58.6634 37.8099C58.5843 39.9392 58.1899 41.9594 58.3338 44.0773C60.1867 44.168 61.9265 44.2403 63.6655 44.3453C64.3083 44.3838 64.9524 44.4646 65.5836 44.588C65.9752 44.6653 66.3159 44.9084 66.1935 45.3904C66.0829 45.8293 65.741 45.9624 65.306 45.9126C64.1715 45.7853 63.038 45.6469 61.9009 45.5542C61.0292 45.4832 60.1531 45.4603 59.2781 45.4491C58.3335 45.4377 58.0121 45.6815 57.8589 46.5641C57.5791 48.1758 57.3077 49.7889 57.0847 51.4092C56.8729 52.9533 56.9897 53.0603 58.5002 53.1241C58.8429 53.1384 59.1917 53.1305 59.5254 53.1989C60.6648 53.4305 61.7855 53.3732 62.9279 53.1621C63.4682 53.0615 64.059 53.1539 64.6113 53.2513C64.8006 53.2846 65.0681 53.5999 65.0674 53.7861C65.0669 53.9798 64.8166 54.2155 64.619 54.3531C64.4427 54.4762 64.1909 54.5439 63.9731 54.543C61.8509 54.5385 59.7269 54.5662 57.609 54.4642C56.9224 54.4315 56.238 54.0775 55.5861 53.7938C55.4234 53.7223 55.2841 53.3416 55.312 53.1264C55.4975 51.6928 55.6426 50.2434 55.969 48.8398C56.587 46.1885 56.8386 43.5063 56.9526 40.799C56.9833 40.0763 57.1153 39.3579 57.1383 38.6352C57.1733 37.5538 57.9466 37.0547 58.7193 36.577C58.9504 36.4339 59.3079 36.4569 59.6057 36.4614C60.821 36.4784 62.0379 36.4986 63.2526 36.556C64.0492 36.5933 64.8463 36.6675 65.6377 36.7742C66.1294 36.8401 66.5713 37.0532 66.8678 37.5454C66.5086 38.0304 66.0405 38.104 65.5371 38.0735C64.1735 37.991 62.8121 37.9054 61.4489 37.8141C60.7257 37.7656 60.0055 37.6888 59.2824 37.6517C59.1069 37.6419 58.9236 37.7399 58.6634 37.8099Z" fill="white"/>
<path d="M40.0971 36.5235C40.5808 36.3219 40.8527 36.2088 41.1428 36.0865C41.2742 36.23 41.431 36.3236 41.4629 36.4496C41.6943 37.3311 41.8982 38.2187 42.1144 39.1041C42.1941 39.4347 42.2317 39.7856 42.3711 40.089C43.8967 43.3947 44.9486 46.8369 45.5213 50.4366C45.6554 51.2784 45.8826 52.1534 46.5973 52.842C47.2915 52.3675 47.634 51.6451 48.0353 50.9788C48.3691 50.4246 48.6343 49.8288 48.9803 49.2837C50.0897 47.5364 50.8583 45.631 51.5979 43.7134C52.3922 41.6529 53.1706 39.5871 53.9616 37.5254C54.1422 37.0551 54.3881 36.6405 55.0806 36.4748C55.161 36.7651 55.3327 37.0475 55.2847 37.2852C55.1965 37.7252 55.0535 38.189 54.8036 38.554C53.3382 40.6846 52.5598 43.127 51.7348 45.5222C50.9755 47.7261 49.9953 49.8116 48.9737 51.8883C48.4699 52.9113 47.9234 53.9138 47.3978 54.9219C46.9202 54.9823 46.4204 55.0443 45.8343 55.1183C45.0977 53.1673 44.0153 51.2846 43.7383 49.0935C43.42 46.5782 42.4318 44.2525 41.622 41.8741C41.0346 40.1549 40.6183 38.3781 40.0971 36.5235Z" fill="white"/>
<path d="M104.108 54.3922C104.874 53.945 105.361 53.8979 105.759 54.4263C106.591 55.5288 107.825 55.6205 109.038 55.732C109.32 55.7578 109.678 55.6746 109.902 55.5087C111.311 54.4675 112.428 53.254 112.693 51.3838C112.944 49.6055 112.027 48.4218 110.957 47.2468C110.179 46.3928 109.115 46.0338 108.102 45.6259C106.403 44.942 105.329 43.6278 104.457 42.1378C103.574 40.6292 104.308 39.3045 105.281 38.1789C106.239 37.0701 107.478 36.4483 109.031 36.8242C109.963 37.0496 110.402 37.5672 110.347 38.5923C110.047 38.4451 109.785 38.3499 109.559 38.2017C108.648 37.6069 107.759 37.6582 106.901 38.2866C106.213 38.7907 105.737 39.4374 105.486 40.2841C105.12 41.5199 105.847 42.3379 106.511 43.1557C107.341 44.1779 108.439 44.8128 109.683 45.297C111.686 46.0763 113.302 47.3768 113.597 49.6588C113.873 51.7939 113.115 53.6267 111.449 55.0432C111.275 55.191 111.091 55.3282 110.916 55.4745C109.81 56.404 108.623 56.7752 107.224 56.1156C106.538 55.7928 105.786 55.608 105.104 55.2788C104.764 55.1134 104.515 54.7634 104.108 54.3922Z" fill="white"/>
<path d="M191.7 93.2114C191.362 94.442 190.611 95.3147 189.877 96.194C189.135 97.0853 189.099 97.2976 189.829 98.1424C192.002 100.655 192.382 103.622 191.509 106.621C190.444 110.278 187.336 112.073 183.579 111.749C181.799 111.595 180.091 111.193 178.521 110.235C177.782 109.784 176.878 109.599 176.043 109.307C175.336 109.059 175.211 108.607 175.171 107.855C175.065 105.878 175.983 104.161 176.347 102.311C176.827 99.8632 177.42 97.4385 177.943 94.9998C178.441 92.6841 178.906 90.3599 179.401 88.0436C179.48 87.6739 179.625 87.3145 179.77 86.9636C180.181 85.9828 180.516 85.8885 181.517 86.3538C181.849 86.5075 182.231 86.5697 182.595 86.6268C184.563 86.9287 186.516 87.2467 188.33 88.1604C189.724 88.8626 190.639 90.0189 191.382 91.2947C191.689 91.8151 191.606 92.5642 191.7 93.2114ZM177.416 105.133C177.469 105.147 177.524 105.159 177.577 105.172C177.405 105.956 177.241 106.743 177.057 107.525C176.945 107.994 177.009 108.386 177.505 108.564C179.332 109.225 181.129 110.01 183.005 110.483C184.733 110.919 186.414 110.626 187.873 109.362C188.708 108.639 189.298 107.824 189.703 106.827C190.485 104.899 190.579 102.968 189.794 101.017C189.041 99.1481 187.618 98.1631 185.614 98.1279C185.234 98.1208 184.854 98.0674 184.475 98.0496C183.164 97.9893 181.854 97.9032 180.543 97.8922C179.881 97.886 179.296 98.1115 179.095 98.8757C178.545 100.965 177.977 103.048 177.416 105.133ZM180.368 91.8732C180.382 91.8763 180.396 91.8795 180.411 91.8827C180.192 92.8755 179.905 93.8586 179.774 94.8613C179.639 95.8971 179.977 96.1329 181.012 95.9355C182.731 95.6082 184.456 95.4421 186.166 95.9624C187.411 96.3418 188.328 95.8598 189.043 94.9026C189.42 94.3973 189.702 93.8205 190.012 93.2678C190.395 92.5861 190.239 91.9704 189.763 91.3923C187.888 89.1164 185.322 88.4009 182.539 88.2626C181.493 88.2102 181.135 88.5895 180.863 89.6418C180.675 90.3787 180.532 91.1282 180.368 91.8732Z" fill="white"/>
<path d="M169.436 101.012C169.216 101.355 169.103 101.704 168.862 101.876C168.132 102.402 168.061 103.129 168.127 103.913C168.19 104.671 168.291 105.426 168.361 106.184C168.397 106.563 168.409 106.943 168.418 107.324C168.428 107.756 168.247 108.058 167.8 108.154C167.336 108.254 167.046 107.989 166.915 107.614C166.765 107.183 166.68 106.718 166.634 106.262C166.53 105.211 166.48 104.156 166.386 103.104C166.301 102.152 166.049 101.786 165.122 101.618C162.625 101.165 160.118 100.782 157.616 100.359C156.926 100.242 156.474 100.576 156.123 101.094C155.625 101.828 155.127 102.567 154.681 103.333C154.005 104.494 154.255 104.804 152.168 104.376C152.234 104.077 152.205 103.699 152.379 103.497C153.634 102.048 154.592 100.43 155.481 98.7342C156.202 97.3622 157.265 96.175 158.099 94.8582C160.292 91.3974 162.444 87.9112 164.614 84.4372C164.726 84.258 164.833 84.0667 164.984 83.925C165.534 83.4074 166.208 83.5776 166.464 84.3179C166.572 84.6289 166.587 84.9769 166.611 85.3104C166.841 88.6003 167.04 91.8931 167.299 95.1809C167.412 96.612 167.684 98.0288 167.804 99.4601C167.882 100.391 168.686 100.49 169.436 101.012ZM165.076 87.3404C163.845 88.3783 158.29 97.3117 157.969 98.7158C158.462 98.8626 158.96 99.0612 159.476 99.1542C161.221 99.4687 162.972 99.7475 164.721 100.034C165.872 100.223 166.077 100.026 165.987 98.8576C165.76 95.9543 165.536 93.0515 165.31 90.1482C165.242 89.2756 165.165 88.4023 165.076 87.3404Z" fill="white"/>
<path d="M207.986 111.278C207.83 111.773 207.766 112.185 207.575 112.521C207.369 112.882 207.066 113.198 206.761 113.49C205.654 114.545 204.239 115.045 202.83 115.476C201.884 115.764 200.897 115.521 199.987 115.098C198.612 114.458 197.552 113.436 196.555 112.326C195.578 111.236 195.14 109.935 195.017 108.511C194.774 105.682 195.041 102.929 196.302 100.332C196.672 99.5711 197.016 98.7961 197.383 98.0328C199.051 94.5632 201.73 92.1192 205.207 90.5799C206.056 90.2033 207.097 90.1794 208.054 90.1536C208.876 90.1307 209.573 90.5632 210.169 91.172C211.134 92.156 211.574 93.3704 211.828 94.6766C211.985 95.4812 211.714 96.1822 211.198 96.7935C210.678 97.4081 210.16 98.0231 209.615 98.6131C209.423 98.8211 209.172 99.0366 208.912 99.101C208.716 99.1484 208.37 99.0175 208.264 98.8545C208.169 98.7091 208.234 98.3377 208.366 98.1917C208.675 97.8507 209.077 97.596 209.426 97.2869C211.074 95.8236 210.974 93.2055 209.231 91.8723C208.559 91.3578 207.782 91.3603 207.045 91.5564C206.317 91.7504 205.575 92.0248 204.941 92.4255C201.568 94.5525 199.177 97.4869 197.887 101.285C197.106 103.582 196.589 105.91 196.708 108.373C196.851 111.346 199.07 113.287 201.41 114.066C201.852 114.214 202.421 114.134 202.893 114.014C204.153 113.691 205.173 112.937 206.117 112.061C206.557 111.646 206.956 111.08 207.986 111.278Z" fill="white"/>
<path d="M19.5788 82.2455C22.923 82.1955 25.3941 83.3075 27.4823 85.3191C28.3146 86.1207 28.6903 86.3331 29.4143 85.0628C30.7326 82.751 32.2959 80.576 34.4107 78.9248C35.8301 77.8169 37.4312 76.9551 39.2161 76.4996C40.7029 76.1208 42.2193 75.9727 43.7377 76.0044C45.9056 76.0503 48.0459 76.3506 49.5102 78.2121C50.9122 79.9939 52.2509 81.8493 53.0004 84.008C53.8163 86.3597 54.4841 88.7634 55.1856 91.1529C56.1148 94.3184 57.0104 97.4941 57.9263 100.663C58.1326 101.377 57.9151 101.712 57.1564 101.683C56.7438 101.667 56.3375 101.514 55.927 101.43C54.8374 101.206 54.433 101.585 54.6842 102.657C54.8456 103.347 55.0937 104.017 55.3051 104.695C55.689 105.928 56.076 107.159 56.4579 108.393C56.5774 108.779 56.4355 109.096 56.1557 109.353C55.7871 109.694 55.3633 109.648 54.9895 109.402C53.8694 108.667 52.5787 108.494 51.3114 108.263C50.6181 108.136 49.8982 108.128 49.1895 108.114C48.3185 108.095 47.4465 108.149 46.5744 108.132C44.2452 108.09 42.0345 108.568 39.8799 109.456C38.8853 109.865 38.0674 110.417 37.419 111.258C37.3036 111.407 37.1433 111.591 36.9789 111.619C36.0313 111.789 35.0785 112.093 34.1105 111.766C33.2231 111.467 32.3593 111.092 31.4627 110.826C29.6533 110.287 27.8234 109.962 25.919 110.328C24.2893 110.64 22.6698 111.016 21.2637 111.905C20.0679 112.661 18.9345 113.54 17.8766 114.481C17.368 114.933 17.1281 115.676 16.7053 116.243C16.5103 116.504 16.1968 116.754 15.8905 116.841C15.1257 117.06 14.8203 116.852 14.6753 116.052C14.5314 115.26 14.4323 114.457 14.3516 113.654C14.2669 112.816 14.1076 112.691 13.3295 112.938C13.115 113.006 12.8955 113.07 12.6739 113.097C12.0163 113.175 11.8734 113.086 11.7784 112.403C11.5854 111.026 11.3434 109.648 11.276 108.263C11.0809 104.292 10.2947 100.441 9.12856 96.6527C8.59655 94.9239 8.11355 93.1788 7.64485 91.4306C7.40284 90.5259 7.2558 89.5956 7.04034 88.6827C6.9321 88.2222 7.04034 87.8505 7.38139 87.5421C7.59685 87.3481 7.81845 87.1572 8.05433 86.9897C8.5026 86.6711 9.01011 86.422 9.40937 86.0523C10.8716 84.7003 12.678 83.8824 14.4803 83.2616C16.2172 82.6662 18.0471 82.0403 19.5788 82.2455ZM29.3245 87.727C29.5338 88.2232 29.6849 88.7226 29.9402 89.1606C30.8429 90.7087 31.4729 92.37 31.9692 94.0774C32.5104 95.9389 32.9576 97.828 33.4478 99.7058C33.652 100.487 33.8287 101.276 34.0686 102.046C34.7385 104.196 35.8158 106.236 35.777 108.576C35.7739 108.778 36.0098 108.984 36.1344 109.187C36.3151 109.075 36.5388 108.998 36.6695 108.844C37.1259 108.3 37.5068 107.687 37.9949 107.174C40.5497 104.488 43.705 102.759 47.181 101.603C49.8665 100.711 52.6399 100.27 55.4776 100.26C56.5937 100.256 56.7285 100.063 56.4263 98.989C55.6563 96.2503 54.8864 93.5106 54.0971 90.7771C53.5416 88.8523 53.0473 86.9019 52.356 85.0261C51.4309 82.5182 50.0442 80.2605 48.1163 78.3714C47.2269 77.4993 46.1751 76.9796 44.9038 76.9949C43.7408 77.0082 42.5777 77.0316 41.4146 77.0551C39.8727 77.0868 38.4105 77.4442 37.0146 78.1008C35.2603 78.9269 33.8113 80.1594 32.4665 81.5226C32.2275 81.7656 32.0938 82.1189 31.9345 82.4324C31.7323 82.8317 31.574 83.2544 31.3596 83.6455C30.847 84.5788 30.2915 85.4886 29.7942 86.4301C29.5859 86.8212 29.4858 87.2685 29.3245 87.727ZM12.197 106.77C12.3349 107.925 12.4513 109.084 12.627 110.234C12.6709 110.52 12.869 110.966 13.0609 111.004C13.3417 111.058 13.7492 110.885 13.983 110.676C15.0082 109.756 16.1887 109.098 17.412 108.498C19.1121 107.664 20.9379 107.213 22.7698 106.809C24.033 106.53 25.3553 106.255 26.6134 106.661C28.9181 107.404 31.3892 107.583 33.5754 108.734C34.0829 109.001 34.4005 108.786 34.4219 108.221C34.4362 107.839 34.3791 107.445 34.2892 107.071C33.3743 103.234 32.393 99.4107 31.5434 95.559C31.0481 93.3156 30.2353 91.2233 29.0487 89.2801C28.1777 87.8546 27.4476 86.3372 26.1447 85.1895C24.7008 83.9182 23.0506 83.234 21.1728 83.0155C19.6646 82.8398 18.2166 83.2605 16.7452 83.4607C15.2431 83.6649 13.9156 84.3654 12.6259 85.073C11.5303 85.6745 10.6 86.569 9.54211 87.2491C8.73439 87.7678 8.33002 88.4428 8.4934 89.3587C8.74767 90.7893 9.06729 92.2087 9.40528 93.622C9.59317 94.4062 9.89338 95.1628 10.1099 95.9409C10.551 97.5308 11.0064 99.1177 11.3883 100.722C11.8591 102.706 12.2083 104.714 12.197 106.77ZM40.0157 107.686C40.6365 107.654 41.0705 107.649 41.5004 107.607C43.2374 107.439 44.9713 107.219 46.7113 107.098C47.7416 107.026 48.7831 107.075 49.8175 107.122C50.4588 107.152 51.1031 107.242 51.7311 107.372C52.5848 107.55 53.4231 107.801 54.2717 108.004C55.0723 108.194 55.4317 107.873 55.2755 107.124C55.2428 106.967 55.1877 106.813 55.1335 106.661C54.5913 105.138 54.0511 103.614 53.5018 102.094C53.2751 101.467 53.1229 101.402 52.3928 101.487C50.2495 101.736 48.2511 102.458 46.2619 103.258C44.8416 103.829 43.4692 104.467 42.2275 105.359C41.4269 105.935 40.5324 106.436 40.0157 107.686ZM15.4136 112.594C15.4003 112.594 15.3871 112.594 15.3738 112.594C15.3881 112.916 15.385 113.242 15.4228 113.562C15.4738 114.003 15.433 114.528 15.9456 114.729C16.3929 114.904 16.6379 114.476 16.9259 114.247C18.2136 113.219 19.4777 112.164 20.7735 111.146C21.5445 110.539 22.4277 110.151 23.3897 109.923C24.5211 109.655 25.6402 109.331 26.7665 109.04C27.0892 108.956 27.4823 108.878 27.4149 108.48C27.3812 108.283 27.0341 108.025 26.8013 107.993C25.4299 107.806 24.0667 107.553 22.6596 107.789C20.3242 108.18 18.2105 109.114 16.1631 110.247C15.6893 110.509 15.48 110.933 15.4238 111.43C15.3789 111.813 15.4136 112.205 15.4136 112.594Z" fill="white"/>
<path d="M194.461 26.5567C195.113 25.2558 195.79 24.1433 196.637 22.8561C197.285 23.8566 197.796 24.6447 198.389 25.5607C198.771 24.7041 199.079 24.02 199.384 23.3347C199.457 23.1691 199.5 22.9852 199.598 22.8367C199.898 22.3856 200.327 22.3433 200.654 22.7842C200.906 23.1245 201.061 23.5391 201.25 23.9252C201.401 24.2335 201.534 24.5499 201.72 24.9611C202.923 23.9377 202.66 22.1343 204.077 21.3976C204.881 22.0189 204.85 23.0571 205.326 23.9549C205.55 23.8201 205.818 23.7504 205.925 23.5791C206.455 22.7259 206.927 21.8385 207.449 20.9796C207.661 20.6312 207.943 20.3251 208.192 20.0008C208.457 20.3206 208.809 20.6027 208.964 20.9682C209.158 21.4239 209.187 21.9481 209.294 22.4415C209.336 22.6346 209.399 22.8242 209.682 23.0606C210.01 22.3307 210.38 21.6169 210.654 20.8677C210.988 19.9574 211.007 19.9448 211.96 20.075C212.449 20.1413 212.962 20.0796 213.458 20.0225C214.378 19.9185 214.709 20.163 214.815 21.1007C214.839 21.3165 214.861 21.5335 214.86 21.7505C214.848 23.7698 214.796 25.7903 214.826 27.8096C214.85 29.3595 214.982 30.9071 215.056 32.457C215.08 32.9606 215.045 33.4666 215.08 33.9692C215.207 35.7338 215.355 37.4961 215.492 39.2596C215.573 40.3001 215.623 41.3405 215.98 42.3433C216.057 42.5592 215.897 42.8881 215.781 43.136C215.664 43.3884 215.431 43.586 215.31 43.8373C214.415 45.6967 213.297 47.4087 212.09 49.0808C211.333 50.1305 210.648 51.2658 210.132 52.4502C209.373 54.1931 208.253 55.6927 207.245 57.2734C206.432 58.5481 205.669 59.8569 204.929 61.1761C204.352 62.204 203.846 63.272 203.303 64.3182C203.14 64.6322 202.889 64.7533 202.515 64.7762C201.365 64.8481 200.218 64.9737 199.072 65.0822C197.926 65.1907 196.779 65.2958 195.636 65.4203C195.035 65.4854 194.416 65.4614 193.941 65.9914C193.68 66.2826 193.347 66.1444 193.11 65.844C192.076 64.5374 190.764 63.4901 189.673 62.2554C188.443 60.8632 187.087 59.6354 185.681 58.4567C184.353 57.3431 182.918 56.3563 181.556 55.2827C179.856 53.9441 178.227 52.5095 176.48 51.2372C175.264 50.3509 174.141 49.2978 172.66 48.7907C172.133 48.6103 171.664 48.2288 171.208 47.8862C170.876 47.636 170.984 47.2968 171.235 47.0353C172.162 46.0701 173.074 45.0913 174.037 44.1651C176.609 41.6877 179.342 39.3761 181.496 36.483C182.68 34.8931 184.007 33.4084 185.279 31.8848C186.296 30.6661 187.373 29.4954 188.337 28.2368C189.036 27.3242 189.641 26.3305 190.2 25.3243C190.904 24.0519 191.537 23.8978 192.651 24.8652C192.895 25.0776 193.091 25.3426 193.329 25.563C193.663 25.8737 194.012 26.1649 194.461 26.5567ZM192.069 25.852C191.668 26.1398 191.339 26.2974 191.12 26.5498C190.671 27.0683 190.283 27.6394 189.868 28.1865C189.192 29.0762 188.527 29.9762 187.832 30.8511C187.317 31.4987 186.734 32.0938 186.228 32.7482C184.883 34.4888 183.639 36.3151 181.884 37.696C181.72 37.825 181.559 38.0146 181.498 38.2077C180.987 39.8009 179.63 40.7421 178.615 41.9379C177.991 42.6723 177.209 43.2719 176.497 43.9321C175.572 44.7898 174.64 45.6396 173.725 46.5087C173.484 46.7372 173.299 47.025 173.066 47.3117C173.543 47.62 173.92 47.8313 174.261 48.0906C176.101 49.4897 177.948 50.8809 179.76 52.3131C182.282 54.3061 184.988 56.0479 187.42 58.1723C189.11 59.6491 190.773 61.1339 192.294 62.782C192.543 63.0515 192.886 63.2343 193.274 63.5232C193.637 62.9487 193.925 62.5033 194.203 62.051C194.429 61.6809 194.612 61.28 194.869 60.934C196.09 59.2824 197.328 57.6446 198.562 56.0045C198.734 55.7761 198.913 55.5522 199.098 55.3352C199.969 54.3198 200.905 53.3525 201.702 52.2811C202.671 50.9802 203.533 49.6017 204.422 48.2425C205.051 47.2785 205.68 46.31 206.248 45.3095C206.843 44.2599 206.779 44.0326 205.969 43.104C205.211 42.2337 204.433 41.3759 203.716 40.4714C201.901 38.1791 200.126 35.8548 198.315 33.5591C197.486 32.5106 196.455 31.5901 195.793 30.4502C194.809 28.7599 193.266 27.5949 192.069 25.852ZM194.971 63.5735C195.177 63.65 195.275 63.7174 195.375 63.7185C197.66 63.7379 199.917 63.5152 202.101 62.8025C202.344 62.7237 202.568 62.477 202.724 62.2543C203.699 60.8666 204.657 59.4675 205.608 58.0638C206.337 56.989 207.069 55.9154 207.762 54.819C208.418 53.7819 209.051 52.7288 209.648 51.6586C210.683 49.8038 211.684 47.9307 212.696 46.0633C212.989 45.5231 213.293 44.9863 213.543 44.4266C213.784 43.8864 213.537 43.5529 212.957 43.6557C212.501 43.7356 212.059 43.9149 211.625 44.084C210.423 44.55 209.304 45.2398 207.954 45.2935C207.711 45.3038 207.428 45.6293 207.254 45.8749C206.593 46.8114 205.973 47.7777 205.328 48.7268C205.005 49.203 204.65 49.6576 204.334 50.1373C203.62 51.2201 202.978 52.3531 202.201 53.3879C201.445 54.3952 200.526 55.277 199.739 56.2626C198.703 57.5601 197.649 58.8542 196.753 60.2453C196.16 61.1659 195.731 62.1972 195.081 63.0949C195.006 63.1966 195.016 63.361 194.971 63.5735ZM211.459 22.4781C210.722 22.7556 210.636 23.2125 210.516 23.6648C210.36 24.2541 210.298 24.9303 209.959 25.3974C209.401 26.1661 209.306 26.9313 209.392 27.8302C209.511 29.0854 209.416 30.3657 209.583 31.6118C209.92 34.1371 210.25 36.6623 210.46 39.2025C210.519 39.922 210.545 40.6438 210.603 41.3634C210.638 41.7997 210.756 42.2006 211.24 42.381C211.648 42.0407 211.533 41.6592 211.434 41.2732C211.354 40.9614 211.244 40.645 211.234 40.3286C211.164 37.7005 211.076 35.0713 211.07 32.4421C211.064 30.2446 211.146 28.046 211.222 25.8497C211.257 24.7806 211.369 23.7139 211.459 22.4781ZM195.074 27.3801C196.721 29.878 203.314 37.8033 204.035 38.1311C203.927 36.8005 202.92 35.9474 202.424 34.852C201.921 33.7407 201.257 32.698 200.605 31.6609C199.933 30.593 199.193 29.5685 198.479 28.528C197.803 27.5412 197.361 26.3808 196.295 25.4317C195.827 26.1809 195.437 26.8022 195.074 27.3801ZM203.823 24.2941C203.723 24.3146 203.622 24.3352 203.522 24.3558C203.251 25.0216 203.014 25.7046 202.699 26.3476C202.444 26.8673 202.519 27.2968 202.783 27.7788C203.109 28.3772 203.456 28.9894 203.638 29.6393C204.13 31.3982 205.019 32.9744 205.863 34.5608C206.558 35.8685 207.199 37.1809 207.62 38.6017C207.664 38.7547 207.835 38.8701 207.947 39.0026C208 38.3607 207.888 37.8045 207.736 37.2585C207.136 35.0999 206.527 32.9447 205.917 30.7894C205.396 28.9506 204.883 27.1106 204.338 25.2797C204.232 24.9314 203.997 24.6219 203.823 24.2941ZM207.757 23.1565C207.585 23.3518 207.439 23.4637 207.366 23.6111C207.046 24.2552 206.831 24.9702 206.419 25.5459C205.913 26.254 205.965 26.9073 206.187 27.6737C206.958 30.3349 207.681 33.0098 208.435 35.6755C208.505 35.9211 208.665 36.1415 208.783 36.3734C208.979 35.9805 209.004 35.6367 208.974 35.2975C208.852 33.9006 208.676 32.5084 208.591 31.1092C208.483 29.3138 208.478 27.5115 208.356 25.7172C208.299 24.8789 208.223 24.012 207.757 23.1565ZM205.572 37.6274C205.67 37.576 205.767 37.5235 205.865 37.4721C203.982 33.3867 202.098 29.3012 200.181 25.1404C199.12 26.4859 199.122 27.2728 199.887 28.4869C201.521 31.0796 203.097 33.7076 204.703 36.3174C204.977 36.7628 205.282 37.1911 205.572 37.6274ZM212.343 27.323C212.252 27.3208 212.161 27.3185 212.069 27.3162C212.025 27.5104 211.947 27.7045 211.943 27.901C211.912 29.1642 211.873 30.4274 211.883 31.6906C211.891 32.6226 211.849 33.582 212.051 34.4786C212.259 35.4003 212.327 36.3003 212.346 37.2345C212.37 38.4886 212.516 39.7404 212.619 40.9922C212.634 41.1692 212.666 41.3588 212.745 41.513C212.801 41.6227 212.97 41.7677 213.055 41.7483C213.2 41.7152 213.355 41.5895 213.439 41.4593C213.507 41.3508 213.506 41.1772 213.489 41.0379C213.272 39.2504 213.05 37.4641 212.823 35.6778C212.787 35.3946 212.632 35.0976 212.682 34.8349C212.994 33.1377 212.62 31.4622 212.556 29.7786C212.524 28.9586 212.415 28.142 212.343 27.323Z" fill="white"/>
<path d="M97.2214 110.104C98.025 110.562 98.7751 111.007 99.5395 111.423C100.598 111.999 101.992 111.732 102.915 110.971C104.492 109.667 104.649 107.967 104.45 106.131C104.417 105.824 104.378 105.511 104.287 105.218C103.695 103.311 105.023 101.985 106.477 101.371C107.223 101.057 107.971 100.746 108.838 100.383C108.47 99.9072 108.151 99.4924 107.828 99.0813C107.706 98.9265 107.556 98.7905 107.45 98.6261C107.128 98.1273 107.183 97.854 107.65 97.4885C108.225 97.0394 108.821 96.6138 109.366 96.1304C110.883 94.7826 112.407 93.4383 113.875 92.0379C115.404 90.5805 116.874 89.0619 118.366 87.5662C118.733 87.1987 119.033 86.8091 118.931 86.2238C118.873 85.8889 119.091 85.6613 119.361 85.4582C120.438 84.6478 121.478 83.7872 122.571 83.0009C123.555 82.2929 124.589 81.6587 125.803 81.3917C126.103 81.326 126.394 81.2099 126.683 81.1004C127.731 80.7041 128.827 80.5824 129.929 80.6334C130.389 80.6548 130.867 80.8424 131.287 81.0523C132.681 81.7495 133.864 82.7297 134.581 84.1231C135.489 85.8883 135.627 87.6937 134.698 89.561C134.144 90.6744 133.192 91.369 132.378 92.2142C132.01 92.5964 131.568 92.9066 131.169 93.2596C131.002 93.4077 130.867 93.5915 130.704 93.7446C130.297 94.1251 129.893 94.5101 129.462 94.8624C129.352 94.9511 129.127 94.9806 128.99 94.9351C128.539 94.7857 128.171 94.9491 127.776 95.1302C127.424 95.2913 127.023 95.3479 126.667 95.5027C126.025 95.7813 125.382 96.0636 124.773 96.4063C122.172 97.8705 119.606 99.3966 116.983 100.818C115.638 101.547 114.382 102.393 113.135 103.263C112.646 103.603 112.113 103.723 111.529 103.635C111.053 103.564 110.714 103.354 110.506 102.872C110.085 101.896 109.523 101.712 108.553 102.156C107.914 102.449 107.274 102.742 106.634 103.036C105.777 103.431 105.453 104.139 105.614 105.126C105.736 105.876 105.846 106.633 105.873 107.39C105.93 108.989 105.397 110.349 104.216 111.486C102.987 112.667 99.8524 113.261 98.5459 112.167C98.1375 111.825 97.6433 111.585 97.2332 111.245C96.9126 110.977 96.7595 110.618 97.2214 110.104ZM109.116 98.515C109.998 99.6307 110.849 100.71 111.7 101.79C111.911 102.057 112.181 102.079 112.458 101.939C112.709 101.813 112.928 101.626 113.18 101.502C115.045 100.582 116.781 99.432 118.66 98.5245C120.527 97.6235 122.157 96.2706 124.109 95.4965C124.491 95.3451 124.522 95.0138 124.253 94.6568C124.016 94.3432 123.745 94.0539 123.48 93.7623C122.578 92.766 122.099 91.5063 121.375 90.4C120.887 89.6557 120.497 88.8325 119.766 88.1854C119.554 88.3762 119.359 88.5292 119.191 88.7059C118.216 89.7231 117.257 90.7555 116.273 91.7622C115.629 92.4226 114.902 93.0074 114.3 93.7026C113.446 94.6885 112.535 95.5957 111.513 96.4087C110.703 97.0508 109.956 97.7719 109.116 98.515ZM133.682 89.3442C134.075 88.6943 134.278 87.9992 134.327 87.252C134.439 85.5458 133.709 84.1613 132.527 83.0462C131.858 82.4161 130.966 81.9406 130.023 81.9218C128.874 81.8993 127.719 82.0561 126.646 82.5624C126.037 82.8491 125.397 83.071 124.791 83.3634C124.414 83.5455 124.045 83.7712 123.724 84.0386C123.124 84.5397 123.1 84.9057 123.484 85.5873C123.83 86.1992 124.142 86.8301 124.473 87.4507C124.709 87.8945 124.906 88.3673 125.197 88.7726C126.292 90.2958 127.895 91.3091 129.17 92.6584C129.556 93.0678 130.161 93.0208 130.628 92.6062C131.28 92.028 131.899 91.4088 132.497 90.7754C132.921 90.3256 133.288 89.8228 133.682 89.3442ZM128.115 93.6393C127.907 93.3891 127.747 93.1694 127.56 92.9755C126.544 91.9246 125.359 91.0317 124.538 89.8003C124.103 89.1476 123.718 88.4608 123.323 87.7819C122.954 87.1475 122.609 86.5001 122.24 85.8666C122.055 85.5493 121.821 85.4602 121.474 85.7034C120.685 86.2577 120.6 86.6395 121.111 87.4645C121.748 88.4933 122.358 89.5406 123.003 90.5647C123.589 91.4933 124.168 92.4315 124.821 93.3123C125.73 94.5401 126.875 94.6662 128.115 93.6393Z" fill="white"/>
<path d="M131.107 77.1284C130.942 77.2172 130.703 77.4564 130.479 77.4417C130.08 77.4157 130.072 77.0192 130.091 76.712C130.171 75.3813 130.439 74.0849 130.861 72.8201C130.985 72.4476 131.092 72.0682 131.212 71.6943C131.461 70.9155 131.703 70.1339 131.966 69.3607C132.088 69.0032 132.362 68.8905 132.709 69.0478C133.046 69.1997 133.146 69.4571 133.014 69.8128C132.198 72.0201 131.719 74.3134 131.27 76.614C131.244 76.7511 131.187 76.8825 131.107 77.1284Z" fill="white"/>
<path d="M135.351 79.4404C135.508 79.1041 135.608 78.7136 135.84 78.4325C136.287 77.8909 136.796 77.3995 137.301 76.9087C138.089 76.1451 138.886 75.3897 139.697 74.651C140.167 74.2241 140.693 73.9117 141.403 74.1907C141.461 74.7361 141.12 75.0247 140.756 75.2877C139.392 76.268 138.29 77.5096 137.226 78.791C137.118 78.9212 137.012 79.0527 136.916 79.192C136.458 79.8607 136.275 79.9009 135.351 79.4404Z" fill="white"/>
<path d="M138.372 101.663C137.72 100.867 137.096 100.114 136.481 99.3528C135.547 98.1966 134.619 97.0356 133.689 95.8749C133.619 95.7876 133.52 95.7023 133.496 95.6016C133.444 95.3735 133.321 95.043 133.425 94.9225C133.661 94.6456 134.017 94.7567 134.247 94.9901C134.679 95.4307 135.086 95.8983 135.475 96.3788C136.427 97.5563 137.362 98.7461 138.303 99.933C138.46 100.131 138.624 100.326 138.758 100.539C139.115 101.106 139.079 101.207 138.372 101.663Z" fill="white"/>
<path d="M138.249 85.9901C138.223 85.4484 138.447 85.2008 138.862 85.1398C140.168 84.949 141.474 84.7638 142.783 84.5942C144.005 84.4355 145.262 84.5526 146.448 84.1012C146.594 84.0454 146.802 84.0345 146.935 84.0981C147.051 84.1532 147.196 84.4307 147.167 84.4626C146.875 84.7823 146.681 85.236 146.172 85.2934C144.944 85.4322 143.718 85.6495 142.488 85.6819C141.357 85.7119 140.249 85.7887 139.145 86.0349C138.867 86.0963 138.557 86.0098 138.249 85.9901Z" fill="white"/>
<path d="M126.306 78.9881C125.997 78.9983 125.71 79.0943 125.56 78.9922C125.35 78.8501 125.189 78.5773 125.102 78.3278C124.77 77.3692 124.502 76.3883 124.159 75.4347C123.778 74.3769 123.337 73.3409 122.932 72.2917C122.852 72.0861 122.779 71.8657 122.767 71.6486C122.754 71.3948 122.803 71.0717 123.135 71.0992C123.343 71.1162 123.638 71.2885 123.716 71.4673C124.193 72.5783 124.65 73.701 125.054 74.84C125.448 75.9529 125.773 77.0907 126.123 78.2195C126.186 78.427 126.224 78.6434 126.306 78.9881Z" fill="white"/>
<path d="M143.936 95.1309C143.044 95.1421 142.174 95.0575 141.344 94.6413C140.869 94.4027 140.362 94.2231 139.861 94.0378C139.068 93.7442 138.267 93.4698 137.47 93.1824C137.366 93.1443 137.263 93.086 137.176 93.0177C136.933 92.8278 136.645 92.6583 136.796 92.2641C136.935 91.9021 137.243 91.7521 137.7 91.8519C137.835 91.8817 137.964 91.9483 138.092 92.0049C139.097 92.449 140.105 92.8838 141.102 93.3432C141.613 93.5781 142.101 93.8601 142.601 94.1183C142.925 94.2864 143.258 94.4412 143.578 94.6169C143.735 94.7022 143.872 94.8216 144.018 94.9262C143.992 94.9934 143.964 95.0625 143.936 95.1309Z" fill="white"/>
<path d="M112.39 97.3695C112.851 96.8615 113.225 96.4441 113.604 96.029C114.265 95.304 114.924 94.5764 115.592 93.8586C116.668 92.7033 117.835 91.652 119.182 90.8154C119.301 90.7417 119.425 90.624 119.548 90.6224C119.724 90.6201 119.98 90.6541 120.057 90.7689C120.138 90.8912 120.094 91.1463 120.023 91.3056C119.96 91.4455 119.79 91.5444 119.654 91.6447C118.259 92.6679 117.134 93.9678 115.974 95.2311C115.193 96.0801 114.44 96.9538 113.67 97.8125C113.559 97.9369 113.44 98.0773 113.294 98.1439C112.974 98.2896 112.58 98.3546 112.365 98.0529C112.249 97.8884 112.378 97.5473 112.39 97.3695Z" fill="white"/>
<path d="M130.626 83.3009C130.777 83.4242 131.033 83.5497 131.151 83.7534C131.258 83.9386 131.31 84.2633 131.218 84.433C131.053 84.7314 130.782 84.5265 130.56 84.4116C130.311 84.2829 130.072 84.1161 129.808 84.0413C129.286 83.8931 128.764 83.9091 128.231 84.0854C127.701 84.2603 127.148 84.3807 126.596 84.4617C126.431 84.4858 126.236 84.2934 126.055 84.2004C126.148 84.0378 126.203 83.7857 126.339 83.7281C127.541 83.2206 128.78 82.8644 130.107 83.0787C130.267 83.1035 130.416 83.2087 130.626 83.3009Z" fill="white"/>
</svg>
