<svg width="46" height="45" viewBox="0 0 46 45" fill="none" xmlns="http://www.w3.org/2000/svg">
<path d="M40.9071 25.0322C40.4264 24.6619 39.8667 24.4079 39.2715 24.2897C38.6764 24.1716 38.0621 24.1927 37.4765 24.3513L36.7184 24.5268C40.5351 20.9786 42.4653 17.462 42.4653 14.0384C42.4653 9.58818 38.8873 5.96628 34.488 5.96628C33.2473 5.95851 32.0219 6.23991 30.9089 6.78819C29.7959 7.33646 28.826 8.13652 28.076 9.12492C27.326 8.13652 26.3561 7.33646 25.2431 6.78819C24.1301 6.23991 22.9047 5.95851 21.664 5.96628C17.2647 5.96628 13.6867 9.58818 13.6867 14.0384C13.6867 16.0353 14.3237 17.9849 15.6678 20.0678C14.566 20.2378 13.5476 20.7562 12.7619 21.5471L8.689 25.62H3.50884C2.85728 25.62 2.2324 25.8788 1.77168 26.3396C1.31096 26.8003 1.05212 27.4252 1.05212 28.0767V35.0959C1.05212 35.7475 1.31096 36.3724 1.77168 36.8331C2.2324 37.2938 2.85728 37.5526 3.50884 37.5526H21.7587C21.8451 37.5527 21.9312 37.5421 22.0149 37.5211L33.2456 34.7134C33.2988 34.6993 33.351 34.6817 33.4018 34.6607L40.2139 31.7618L40.2719 31.7355C40.8742 31.4347 41.39 30.9855 41.7707 30.4303C42.1515 29.8751 42.3846 29.232 42.4481 28.5618C42.5117 27.8916 42.4036 27.2162 42.134 26.5993C41.8643 25.9824 41.4421 25.4443 40.9071 25.0357V25.0322ZM21.664 8.07204C22.8219 8.05659 23.9581 8.38699 24.9272 9.02096C25.8963 9.65492 26.6542 10.5636 27.1038 11.6308C27.1832 11.8239 27.3181 11.989 27.4915 12.1053C27.6649 12.2215 27.869 12.2836 28.0778 12.2836C28.2865 12.2836 28.4906 12.2215 28.664 12.1053C28.8374 11.989 28.9723 11.8239 29.0517 11.6308C29.5014 10.5636 30.2593 9.65492 31.2283 9.02096C32.1974 8.38699 33.3336 8.05659 34.4915 8.07204C37.6712 8.07204 40.3596 10.8043 40.3596 14.0384C40.3596 17.5901 37.5203 21.584 32.1471 25.5761L29.5378 26.1763C29.798 25.4858 29.8869 24.7426 29.7968 24.0102C29.7068 23.2779 29.4404 22.5783 29.0206 21.9715C28.6008 21.3646 28.0401 20.8687 27.3866 20.5261C26.7331 20.1836 26.0062 20.0046 25.2683 20.0047H18.1912C16.5575 17.841 15.7924 15.9353 15.7924 14.0384C15.7924 10.8043 18.4808 8.07204 21.664 8.07204ZM3.15788 35.0959V28.0767C3.15788 27.9837 3.19486 27.8944 3.26067 27.8286C3.32649 27.7627 3.41576 27.7258 3.50884 27.7258H8.07131V35.4469H3.50884C3.41576 35.4469 3.32649 35.4099 3.26067 35.3441C3.19486 35.2783 3.15788 35.189 3.15788 35.0959ZM39.3558 29.8315L32.6525 32.6866L21.6289 35.4469H10.1771V27.1098L14.25 23.0352C14.5426 22.741 14.8908 22.5077 15.2742 22.349C15.6577 22.1903 16.0688 22.1092 16.4838 22.1104H25.2683C25.9199 22.1104 26.5448 22.3693 27.0055 22.83C27.4662 23.2907 27.725 23.9156 27.725 24.5671C27.725 25.2187 27.4662 25.8436 27.0055 26.3043C26.5448 26.765 25.9199 27.0239 25.2683 27.0239H20.3549C20.0757 27.0239 19.8079 27.1348 19.6104 27.3322C19.4129 27.5297 19.302 27.7975 19.302 28.0767C19.302 28.356 19.4129 28.6238 19.6104 28.8212C19.8079 29.0187 20.0757 29.1296 20.3549 29.1296H25.9702C26.0494 29.1297 26.1282 29.1209 26.2054 29.1033L37.9625 26.3991L38.0047 26.3886C38.4472 26.268 38.9186 26.3151 39.3285 26.5209C39.7384 26.7267 40.0578 27.0767 40.2254 27.5037C40.393 27.9306 40.3969 28.4044 40.2364 28.8341C40.0759 29.2638 39.7623 29.619 39.3558 29.8315Z" fill="#8A1538"/>
</svg>
