<svg width="158" height="59" viewBox="0 0 158 59" fill="none" xmlns="http://www.w3.org/2000/svg">
<path d="M48.044 39V20.52H52.104V39H48.044ZM50.844 39V35.724H62.296V39H50.844ZM50.844 31.16V28.164H60.896V31.16H50.844ZM50.844 23.768V20.52H62.24V23.768H50.844ZM69.9785 39.392C68.7465 39.392 67.6638 39.0747 66.7305 38.44C65.8158 37.8053 65.1065 36.9093 64.6025 35.752C64.0985 34.5947 63.8465 33.2227 63.8465 31.636C63.8465 30.1427 64.0705 28.8173 64.5185 27.66C64.9665 26.5027 65.6292 25.5973 66.5065 24.944C67.3838 24.2907 68.4758 23.964 69.7825 23.964C70.7345 23.964 71.5372 24.1413 72.1905 24.496C72.8438 24.8507 73.3758 25.3733 73.7865 26.064C74.2158 26.736 74.5518 27.548 74.7945 28.5H75.4385C75.3078 27.9027 75.1865 27.324 75.0745 26.764C74.9812 26.1853 74.9065 25.6347 74.8505 25.112C74.7945 24.5893 74.7665 24.132 74.7665 23.74V18.98H78.7985V31.776V39H75.4385V34.744H74.8785C74.6732 35.7893 74.3558 36.6573 73.9265 37.348C73.4972 38.0387 72.9465 38.552 72.2745 38.888C71.6212 39.224 70.8558 39.392 69.9785 39.392ZM71.3225 36.088C71.9385 36.088 72.4612 35.9573 72.8905 35.696C73.3198 35.4347 73.6745 35.0987 73.9545 34.688C74.2345 34.2587 74.4398 33.8013 74.5705 33.316C74.7012 32.812 74.7665 32.3453 74.7665 31.916V31.384C74.7665 31.0293 74.7105 30.6653 74.5985 30.292C74.5052 29.9 74.3652 29.5173 74.1785 29.144C73.9918 28.7707 73.7585 28.444 73.4785 28.164C73.1985 27.8653 72.8718 27.632 72.4985 27.464C72.1252 27.296 71.7145 27.212 71.2665 27.212C70.5945 27.212 70.0252 27.3987 69.5585 27.772C69.0918 28.1453 68.7278 28.668 68.4665 29.34C68.2052 29.9933 68.0745 30.7587 68.0745 31.636C68.0745 32.532 68.2052 33.316 68.4665 33.988C68.7465 34.66 69.1292 35.1827 69.6145 35.556C70.0998 35.9107 70.6692 36.088 71.3225 36.088ZM87.2173 39.392C85.5 39.392 84.2026 38.8133 83.3253 37.656C82.4666 36.48 82.0373 34.6973 82.0373 32.308V24.3H86.0693V31.804C86.0693 33.2413 86.284 34.3147 86.7133 35.024C87.1426 35.7147 87.796 36.06 88.6733 36.06C89.196 36.06 89.6533 35.9293 90.0453 35.668C90.4373 35.4067 90.7733 35.0427 91.0533 34.576C91.3333 34.1093 91.5386 33.5587 91.6693 32.924C91.8186 32.2893 91.9026 31.608 91.9213 30.88V24.3H95.9533V33.008V39H92.7053L92.6773 34.408H92.1733C91.8933 35.5653 91.5386 36.5173 91.1093 37.264C90.6986 37.992 90.1666 38.5333 89.5133 38.888C88.8786 39.224 88.1133 39.392 87.2173 39.392ZM106.175 39.392C104.906 39.392 103.795 39.2053 102.843 38.832C101.891 38.4587 101.098 37.936 100.463 37.264C99.8286 36.592 99.3526 35.7987 99.0353 34.884C98.7179 33.9507 98.5593 32.9333 98.5593 31.832C98.5593 30.6747 98.7179 29.62 99.0353 28.668C99.3713 27.6973 99.8566 26.8573 100.491 26.148C101.126 25.4387 101.91 24.888 102.843 24.496C103.777 24.104 104.841 23.908 106.035 23.908C107.23 23.908 108.266 24.104 109.143 24.496C110.039 24.888 110.758 25.4387 111.299 26.148C111.859 26.8387 112.242 27.66 112.447 28.612L108.723 29.816C108.667 29.2373 108.509 28.7427 108.247 28.332C108.005 27.9027 107.669 27.5853 107.239 27.38C106.829 27.156 106.362 27.044 105.839 27.044C105.298 27.044 104.831 27.156 104.439 27.38C104.047 27.5853 103.711 27.8933 103.431 28.304C103.17 28.696 102.965 29.1813 102.815 29.76C102.685 30.32 102.619 30.9547 102.619 31.664C102.619 32.672 102.75 33.5307 103.011 34.24C103.291 34.9307 103.693 35.4627 104.215 35.836C104.757 36.1907 105.419 36.368 106.203 36.368C106.95 36.368 107.547 36.228 107.995 35.948C108.443 35.6493 108.77 35.276 108.975 34.828C109.199 34.3613 109.339 33.8853 109.395 33.4L112.923 34.184C112.83 34.912 112.625 35.5933 112.307 36.228C112.009 36.8627 111.579 37.4133 111.019 37.88C110.459 38.3467 109.778 38.72 108.975 39C108.191 39.2613 107.258 39.392 106.175 39.392ZM118.531 39.392C117.71 39.392 116.982 39.2333 116.347 38.916C115.713 38.58 115.218 38.104 114.863 37.488C114.509 36.872 114.331 36.1067 114.331 35.192C114.331 34.3893 114.481 33.7173 114.779 33.176C115.097 32.6347 115.554 32.196 116.151 31.86C116.749 31.524 117.486 31.244 118.363 31.02C119.241 30.796 120.239 30.6 121.359 30.432C121.957 30.3387 122.442 30.2547 122.815 30.18C123.207 30.0867 123.497 29.9467 123.683 29.76C123.87 29.5547 123.963 29.2653 123.963 28.892C123.963 28.3693 123.777 27.9213 123.403 27.548C123.03 27.1747 122.442 26.988 121.639 26.988C121.098 26.988 120.594 27.0813 120.127 27.268C119.679 27.4547 119.287 27.7347 118.951 28.108C118.634 28.4813 118.401 28.9573 118.251 29.536L114.695 28.444C114.919 27.6787 115.237 27.016 115.647 26.456C116.077 25.896 116.59 25.4293 117.187 25.056C117.785 24.664 118.466 24.3747 119.231 24.188C119.997 24.0013 120.827 23.908 121.723 23.908C123.161 23.908 124.327 24.1413 125.223 24.608C126.138 25.056 126.819 25.7653 127.267 26.736C127.715 27.688 127.939 28.92 127.939 30.432V32.952C127.939 33.6053 127.949 34.268 127.967 34.94C128.005 35.612 128.042 36.2933 128.079 36.984C128.135 37.656 128.191 38.328 128.247 39H124.691C124.617 38.5333 124.542 38.0013 124.467 37.404C124.411 36.788 124.365 36.172 124.327 35.556H123.823C123.562 36.2653 123.189 36.9093 122.703 37.488C122.218 38.0667 121.621 38.5333 120.911 38.888C120.221 39.224 119.427 39.392 118.531 39.392ZM120.239 36.48C120.594 36.48 120.949 36.4147 121.303 36.284C121.677 36.1533 122.031 35.976 122.367 35.752C122.722 35.5093 123.039 35.2107 123.319 34.856C123.618 34.5013 123.861 34.1 124.047 33.652L123.991 31.3L124.635 31.44C124.299 31.6827 123.907 31.8787 123.459 32.028C123.011 32.1587 122.545 32.2613 122.059 32.336C121.593 32.4107 121.126 32.4947 120.659 32.588C120.193 32.6813 119.773 32.8027 119.399 32.952C119.045 33.1013 118.755 33.3067 118.531 33.568C118.326 33.8107 118.223 34.156 118.223 34.604C118.223 35.1827 118.41 35.64 118.783 35.976C119.157 36.312 119.642 36.48 120.239 36.48ZM131.186 39V31.888V24.3H134.518L134.546 29.312H135.078C135.228 28.0613 135.48 27.044 135.834 26.26C136.208 25.476 136.721 24.8973 137.374 24.524C138.028 24.1507 138.84 23.964 139.81 23.964C139.978 23.964 140.156 23.9733 140.342 23.992C140.548 23.992 140.781 24.02 141.042 24.076L140.874 28.36C140.594 28.2293 140.286 28.136 139.95 28.08C139.614 28.024 139.316 27.996 139.054 27.996C138.326 27.996 137.701 28.164 137.178 28.5C136.656 28.836 136.226 29.3213 135.89 29.956C135.573 30.572 135.358 31.328 135.246 32.224V39H131.186ZM149.824 39.392C148.611 39.392 147.528 39.224 146.576 38.888C145.643 38.552 144.85 38.0667 144.196 37.432C143.543 36.7973 143.039 36.0133 142.684 35.08C142.348 34.1467 142.18 33.092 142.18 31.916C142.18 30.7587 142.339 29.6947 142.656 28.724C142.992 27.7347 143.478 26.8853 144.112 26.176C144.747 25.448 145.522 24.888 146.436 24.496C147.351 24.104 148.387 23.908 149.544 23.908C150.664 23.908 151.663 24.0947 152.54 24.468C153.418 24.8227 154.146 25.364 154.724 26.092C155.322 26.82 155.751 27.716 156.012 28.78C156.292 29.8253 156.395 31.0293 156.32 32.392L144.784 32.504V30.292L153.996 30.208L152.568 31.328C152.699 30.3387 152.634 29.5267 152.372 28.892C152.111 28.2573 151.728 27.7907 151.224 27.492C150.739 27.1933 150.198 27.044 149.6 27.044C148.891 27.044 148.266 27.2307 147.724 27.604C147.183 27.9773 146.763 28.528 146.464 29.256C146.166 29.9653 146.016 30.824 146.016 31.832C146.016 33.4187 146.362 34.5853 147.052 35.332C147.762 36.0787 148.686 36.452 149.824 36.452C150.347 36.452 150.786 36.3867 151.14 36.256C151.514 36.1067 151.812 35.92 152.036 35.696C152.279 35.472 152.466 35.22 152.596 34.94C152.746 34.66 152.867 34.38 152.96 34.1L156.46 34.856C156.292 35.5467 156.04 36.172 155.704 36.732C155.387 37.2733 154.958 37.7493 154.416 38.16C153.875 38.552 153.222 38.8507 152.456 39.056C151.71 39.28 150.832 39.392 149.824 39.392Z" fill="white"/>
<path d="M18 11C14.4399 11 10.9598 12.0557 7.99974 14.0335C5.03966 16.0114 2.73255 18.8226 1.37018 22.1117C0.00779906 25.4008 -0.348661 29.02 0.345873 32.5116C1.04041 36.0033 2.75474 39.2106 5.27209 41.7279C7.78943 44.2453 10.9967 45.9596 14.4884 46.6541C17.98 47.3487 21.5992 46.9922 24.8883 45.6298C28.1774 44.2675 30.9886 41.9604 32.9665 39.0003C34.9443 36.0402 36 32.5601 36 29C35.9949 24.2277 34.0969 19.6523 30.7223 16.2777C27.3478 12.9032 22.7723 11.0051 18 11ZM13.386 45.5408L14.04 35.2986H16.7194L18.5826 37.1261H21.9188L22.5618 45.5545C19.5605 46.3918 16.3873 46.3918 13.386 45.5545V45.5408ZM14.9386 21.2724H20.7096L21.8583 36.3017H18.9206L17.0574 34.4742H14.0922L14.9386 21.2724ZM15.3344 20.4479L17.8076 16.8287L20.2809 20.4479H15.3344ZM23.3588 45.3099L21.4901 20.7173L17.8214 15.3722L14.1472 20.72L12.5753 45.2934C8.70179 44.0049 5.41375 41.3792 3.30038 37.8866C1.18702 34.3941 0.386464 30.2631 1.04218 26.2339C1.6979 22.2048 3.76704 18.5408 6.87879 15.8986C9.99054 13.2564 13.9415 11.8088 18.0237 11.815C22.1058 11.8212 26.0524 13.281 29.156 15.9326C32.2597 18.5843 34.3176 22.2546 34.961 26.2857C35.6045 30.3169 34.7913 34.4454 32.6673 37.9315C30.5432 41.4175 27.2472 44.0333 23.3698 45.3099H23.3588Z" fill="white"/>
</svg>
