<svg width="158" height="108" viewBox="0 0 158 108" fill="none" xmlns="http://www.w3.org/2000/svg">
<g opacity="0.23" clip-path="url(#clip0_3001_197)">
<path d="M98.3558 64.184C98.299 64.0342 98.1359 63.9487 97.9799 63.9843L97.9303 63.9986C97.4622 64.0984 97.1005 64.0699 96.8452 63.9059C96.4835 63.6634 96.3133 63.1213 96.3133 62.2369V54.2842C96.3133 51.1745 94.4482 49.6054 90.7676 49.6054C87.4699 49.6054 84.8885 51.1531 84.8885 53.1288C84.8885 54.1416 85.5126 54.8834 86.4345 54.9904C87.0373 55.0403 87.6259 54.8049 88.0231 54.3556C88.8386 53.5068 88.7323 52.494 87.7465 51.417C88.328 50.8108 89.3563 50.4541 90.5336 50.4541C92.4483 50.4541 93.2639 51.5811 93.2639 54.2201V56.2314C92.8171 56.3669 92.3916 56.5024 91.6257 56.6807C90.0797 57.0374 87.9522 57.5224 86.3494 58.3996C85.0304 59.12 84.3567 60.2541 84.3567 61.7733C84.3567 63.4351 85.4488 65.3609 88.5408 65.3609C90.2712 65.3609 91.8172 64.5478 93.4057 62.8003C93.5476 64.6191 94.2355 65.2895 95.9233 65.2895C96.7317 65.2895 97.3771 65.1041 98.143 64.7332C98.3416 64.6334 98.4409 64.398 98.3558 64.184ZM93.2568 61.7519C92.8809 62.2725 91.6541 63.8131 90.1293 63.8131C88.0656 63.8131 87.633 62.3795 87.633 61.167C87.633 59.1842 89.1649 58.2713 93.2568 57.2656V61.7519ZM132.829 65.4251C128.453 65.4251 125.155 62.0229 125.155 57.5152C125.155 53.1003 128.595 49.5055 132.829 49.5055C137.112 49.5055 140.474 52.9648 140.474 57.3797C140.467 62.351 136.502 65.4251 132.829 65.4251ZM132.659 50.3543C130.765 50.3543 128.602 51.1603 128.602 57.451C128.602 62.244 130.027 64.5763 132.963 64.5763C135.772 64.5763 137.02 62.3795 137.02 57.451C137.02 52.6723 135.595 50.3543 132.659 50.3543ZM65.2019 49.7908C65.2019 53.4498 64.287 55.4611 59.6419 55.4611H57.1811V44.4059H59.7483C64.5565 44.413 65.2019 47.1304 65.2019 49.7908ZM57.1811 62.2297V56.481H59.415C62.741 56.481 65.2728 55.7821 66.9393 54.4055C68.6839 52.9648 69.0456 51.1317 69.0456 49.855C69.0456 44.5984 63.9324 43.4929 59.6419 43.4929H59.6632H50.9616C50.7631 43.4929 50.607 43.6498 50.607 43.8495V43.8709V43.8638C50.607 44.0421 50.7205 44.199 50.8907 44.2632C51.6637 44.5485 53.77 44.1491 53.77 46.3887V62.2226C53.77 63.3781 53.2594 64.1912 50.9049 64.4051C50.7205 64.4194 50.5787 64.5763 50.5787 64.7617V64.8188C50.5787 65.0114 50.7347 65.1683 50.9333 65.1683H60.2305C60.422 65.1683 60.5851 65.0114 60.5851 64.8188V64.7689C60.5851 64.5834 60.4362 64.4337 60.2518 64.4123C57.6917 64.2126 57.174 63.4351 57.1811 62.2297ZM76.0806 49.4984C72.0383 49.4984 68.7406 53.1288 68.7406 57.6008C68.7406 62.1228 71.8255 65.4037 76.0806 65.4037C79.6548 65.4037 81.3923 63.2853 82.3922 61.6948C82.4915 61.5379 82.449 61.3239 82.293 61.2241L82.2504 61.1884C82.0944 61.0814 81.8816 61.11 81.7611 61.2597C80.442 62.8931 79.3002 63.8417 77.3145 63.8417C74.8041 63.8417 72.1163 62.1228 72.1163 57.3084V57.2799C72.1163 57.0659 72.1163 56.7735 72.1234 56.5024H82.3993C82.4277 56.5024 82.449 56.481 82.4561 56.4525L82.4632 56.374C82.605 54.3984 82.0447 52.6224 80.8746 51.3742C79.7328 50.1403 78.0734 49.4984 76.0806 49.4984ZM72.1801 55.4754C72.5134 52.1802 73.8112 50.3686 75.8537 50.3686C76.8678 50.3686 77.6266 50.6467 78.1585 51.2244C78.896 52.009 79.201 53.4426 79.0804 55.4682H72.1801V55.4754ZM118.674 55.6537C115.858 54.8691 114.766 54.0845 114.766 52.8292C114.766 51.4099 115.901 50.3757 117.475 50.3757C119.319 50.3757 120.113 51.253 122.063 54.484L122.085 54.5267C122.092 54.541 122.099 54.5481 122.113 54.5553H122.397C122.595 54.5553 122.751 54.3984 122.751 54.1987V49.5555C122.751 49.5341 122.73 49.5055 122.73 49.5055H122.347C122.241 49.5055 122.141 49.5555 122.071 49.6339L121.446 50.3828C120.418 49.8265 119.269 49.5269 118.099 49.5055C114.872 49.5055 112.617 51.4812 112.617 54.3128C112.617 56.9732 114.397 57.9717 117.461 58.7919C120.447 59.5979 121.496 60.4466 121.496 62.0086C121.496 63.7489 119.801 64.5335 118.589 64.5335C116.34 64.5335 115.397 63.7062 113.241 59.8689L113.22 59.8261C113.213 59.8119 113.199 59.8047 113.192 59.7976H112.901C112.702 59.7976 112.546 59.9545 112.546 60.1542V65.3609C112.546 65.3894 112.568 65.4108 112.603 65.4108H112.972C113.064 65.4108 113.156 65.3751 113.22 65.3038L114.199 64.3267C115.355 65.0328 117.078 65.4037 118.191 65.4037C119.872 65.4037 121.248 64.8759 122.184 63.8773C123.014 62.9858 123.475 61.7233 123.475 60.3254C123.482 57.9075 122.177 56.6379 118.674 55.6537ZM101.668 63.3067C101.668 64.1056 101.462 64.3695 100.171 64.4479C99.9869 64.4622 99.8379 64.612 99.8379 64.8045C99.8379 64.9971 99.994 65.154 100.193 65.154H106.547C106.738 65.154 106.901 64.9971 106.901 64.8117C106.901 64.6191 106.752 64.4693 106.568 64.4551C105.093 64.3837 104.717 64.1484 104.717 63.3067V54.056C105.767 52.33 106.518 51.4242 107.788 51.1531C107.724 51.3742 107.688 51.6096 107.688 51.845C107.688 52.9719 108.476 53.7493 109.61 53.7493C110.61 53.7921 111.454 53.0147 111.504 52.009C111.504 51.952 111.504 51.8949 111.504 51.8378C111.504 50.7751 110.837 49.5341 108.951 49.5341C107.405 49.5341 105.93 50.4114 104.66 52.5154V50.1332C104.66 49.8907 104.462 49.6981 104.228 49.7052C104.221 49.7052 104.221 49.7052 104.214 49.7052L100.207 49.8122C100.015 49.8194 99.8663 49.9763 99.8663 50.1688V50.2188C99.8663 50.3971 99.994 50.5469 100.164 50.5683C101.497 50.7537 101.682 51.3814 101.682 52.0375L101.668 63.3067ZM145.644 49.6981C145.736 49.6981 145.828 49.7338 145.892 49.798C145.963 49.8622 146.005 49.9549 146.005 50.0476L146.019 52.6866C146.019 52.6866 147.324 49.5911 151.558 49.5911H151.601C154.239 49.5911 155.749 51.2601 155.749 54.1701V63.2782C155.749 64.077 155.955 64.3409 157.246 64.4194C157.437 64.4265 157.579 64.5834 157.579 64.776C157.579 64.9757 157.416 65.1326 157.224 65.1326H151.515C151.317 65.1398 151.154 64.99 151.147 64.7903C151.14 64.5906 151.289 64.4265 151.487 64.4194C152.523 64.3267 152.693 64.0699 152.693 63.2782V55.0688C152.693 52.3514 151.913 51.2958 149.92 51.2958C148.565 51.2958 147.466 52.4655 146.778 53.4426C146.778 53.4426 146.424 53.8777 146.041 54.7051L146.083 63.2925C146.083 64.077 146.246 64.3409 147.253 64.4337C147.445 64.4693 147.58 64.6548 147.544 64.8473C147.516 65.0114 147.381 65.1326 147.218 65.1469H141.53C141.339 65.1469 141.176 64.99 141.176 64.7903C141.176 64.6048 141.325 64.4479 141.509 64.4337C142.793 64.3552 142.998 64.0913 142.998 63.2925V52.0375C142.998 51.3814 142.814 50.7466 141.474 50.5611C141.303 50.5326 141.176 50.3828 141.176 50.2116V50.1617C141.176 49.9691 141.332 49.8122 141.523 49.8051L145.644 49.6981Z" fill="#3D3935"/>
<path d="M34.0335 33.6859C44.1038 39.3775 46.4512 52.1374 39.4374 65.0471C33.2818 76.3947 19.8358 81.2447 9.82229 75.4675C-0.198342 69.6903 -2.15566 53.5639 2.15612 44.2846C8.40394 30.8187 22.9137 27.3951 34.0335 33.6859Z" fill="#007FA3"/>
<path d="M33.7993 43.4715C35.7708 45.5613 36.3878 48.7281 36.0403 51.3243C35.6502 54.2842 33.8348 57.0302 30.8279 58.8419C28.445 60.2897 25.3034 60.8603 22.2185 60.8889C22.1901 61.3739 22.0979 63.0428 22.0483 63.3139C21.9986 63.6134 21.8639 63.8987 21.6724 64.1341C21.3391 64.562 20.7647 64.8402 20.1973 65.0042C19.7435 65.1326 19.2967 65.1897 18.9705 65.1897C18.5591 65.1897 18.1691 65.0256 17.8783 64.7332C17.6443 64.4693 17.5096 64.1412 17.4883 63.7917L17.467 63.4565C17.4032 63.1712 17.0415 48.778 17.1124 49.0348C17.1692 47.3088 19.9704 47.0092 21.4951 47.3088C23.0198 47.6154 22.6369 49.4556 22.5943 51.7166C22.5943 51.7166 22.5234 54.6908 22.3816 57.8362C24.3247 57.7649 25.8707 57.2085 27.3104 56.5024C30.2321 55.0688 31.7711 52.8649 31.7711 49.6197C31.7711 46.3744 28.5869 42.7511 22.722 42.7511C16.85 42.7511 14.3325 44.2204 11.4958 46.5527C10.8504 47.0805 10.3611 47.6083 9.89302 47.9578C9.42497 48.3073 8.18391 48.3643 7.85769 47.5441C7.45346 46.5599 8.20519 45.4615 8.64488 44.9337C9.33278 44.1063 11.0348 42.4231 12.9283 41.4459C15.0913 40.3261 17.7294 39.1208 21.41 39.028C24.736 38.9496 29.9981 39.2135 33.7851 43.4573M21.0696 67.308C20.7789 67.0798 20.4384 66.9157 20.0697 66.8373C19.9491 66.8159 19.8286 66.8016 19.7151 66.8016C19.0201 66.823 18.3818 67.1796 17.9989 67.7574C17.6514 68.2424 17.5096 68.8415 17.5947 69.4335C17.6585 69.8044 17.7932 70.1253 17.9989 70.3607C18.2258 70.6317 18.5804 70.8314 19.0201 70.9598C19.2683 71.0311 19.5307 71.0668 19.786 71.0668C20.3179 71.0811 20.8356 70.9099 21.2611 70.5818C21.715 70.2252 21.9774 69.6688 21.9632 69.0911C21.9561 68.3921 21.6228 67.736 21.0696 67.308Z" fill="white"/>
</g>
<defs>
<clipPath id="clip0_3001_197">
<rect width="157.579" height="108.554" fill="white"/>
</clipPath>
</defs>
</svg>
