<svg width="45" height="45" viewBox="0 0 45 45" fill="none" xmlns="http://www.w3.org/2000/svg">
<path d="M38.9565 7.01919V13.3365C38.9565 13.6157 38.8456 13.8835 38.6481 14.081C38.4507 14.2784 38.1829 14.3893 37.9036 14.3893C37.6244 14.3893 37.3566 14.2784 37.1591 14.081C36.9617 13.8835 36.8507 13.6157 36.8507 13.3365V8.07207H31.5864C31.3071 8.07207 31.0393 7.96114 30.8419 7.76368C30.6444 7.56623 30.5335 7.29843 30.5335 7.01919C30.5335 6.73995 30.6444 6.47214 30.8419 6.27469C31.0393 6.07724 31.3071 5.96631 31.5864 5.96631H37.9036C38.1829 5.96631 38.4507 6.07724 38.6481 6.27469C38.8456 6.47214 38.9565 6.73995 38.9565 7.01919ZM37.9036 30.5335C37.6244 30.5335 37.3566 30.6444 37.1591 30.8419C36.9617 31.0393 36.8507 31.3071 36.8507 31.5864V36.8507H31.5864C31.3071 36.8507 31.0393 36.9617 30.8419 37.1591C30.6444 37.3566 30.5335 37.6244 30.5335 37.9036C30.5335 38.1829 30.6444 38.4507 30.8419 38.6481C31.0393 38.8456 31.3071 38.9565 31.5864 38.9565H37.9036C38.1829 38.9565 38.4507 38.8456 38.6481 38.6481C38.8456 38.4507 38.9565 38.1829 38.9565 37.9036V31.5864C38.9565 31.3071 38.8456 31.0393 38.6481 30.8419C38.4507 30.6444 38.1829 30.5335 37.9036 30.5335ZM13.3365 36.8507H8.07207V31.5864C8.07207 31.3071 7.96114 31.0393 7.76368 30.8419C7.56623 30.6444 7.29843 30.5335 7.01919 30.5335C6.73995 30.5335 6.47214 30.6444 6.27469 30.8419C6.07724 31.0393 5.96631 31.3071 5.96631 31.5864V37.9036C5.96631 38.1829 6.07724 38.4507 6.27469 38.6481C6.47214 38.8456 6.73995 38.9565 7.01919 38.9565H13.3365C13.6157 38.9565 13.8835 38.8456 14.081 38.6481C14.2784 38.4507 14.3893 38.1829 14.3893 37.9036C14.3893 37.6244 14.2784 37.3566 14.081 37.1591C13.8835 36.9617 13.6157 36.8507 13.3365 36.8507ZM7.01919 14.3893C7.29843 14.3893 7.56623 14.2784 7.76368 14.081C7.96114 13.8835 8.07207 13.6157 8.07207 13.3365V8.07207H13.3365C13.6157 8.07207 13.8835 7.96114 14.081 7.76368C14.2784 7.56623 14.3893 7.29843 14.3893 7.01919C14.3893 6.73995 14.2784 6.47214 14.081 6.27469C13.8835 6.07724 13.6157 5.96631 13.3365 5.96631H7.01919C6.73995 5.96631 6.47214 6.07724 6.27469 6.27469C6.07724 6.47214 5.96631 6.73995 5.96631 7.01919V13.3365C5.96631 13.6157 6.07724 13.8835 6.27469 14.081C6.47214 14.2784 6.73995 14.3893 7.01919 14.3893ZM30.8844 30.5335C30.721 30.5335 30.5598 30.4954 30.4136 30.4223C30.2674 30.3492 30.1402 30.2431 30.0421 30.1123C29.1595 28.9355 28.0149 27.9802 26.6992 27.3224C25.3834 26.6645 23.9325 26.322 22.4614 26.322C20.9903 26.322 19.5394 26.6645 18.2237 27.3224C16.9079 27.9802 15.7633 28.9355 14.8807 30.1123C14.7977 30.2229 14.6938 30.3161 14.5748 30.3866C14.4558 30.457 14.3242 30.5033 14.1873 30.5229C14.0504 30.5424 13.911 30.5349 13.7771 30.5005C13.6431 30.4662 13.5173 30.4059 13.4067 30.3229C13.296 30.2399 13.2028 30.136 13.1324 30.017C13.062 29.8981 13.0156 29.7664 12.9961 29.6295C12.9765 29.4926 12.9841 29.3532 13.0184 29.2193C13.0528 29.0854 13.1131 28.9595 13.1961 28.8489C14.521 27.0729 16.3299 25.7166 18.4061 24.9427C17.2997 24.0951 16.4867 22.9221 16.0814 21.5887C15.6761 20.2552 15.6988 18.8282 16.1462 17.5083C16.5937 16.1884 17.4436 15.0419 18.5763 14.2298C19.709 13.4178 21.0677 12.9811 22.4614 12.9811C23.8551 12.9811 25.2138 13.4178 26.3465 14.2298C27.4793 15.0419 28.3291 16.1884 28.7766 17.5083C29.2241 18.8282 29.2467 20.2552 28.8414 21.5887C28.4361 22.9221 27.6231 24.0951 26.5167 24.9427C28.5929 25.7166 30.4019 27.0729 31.7267 28.8489C31.8441 29.0053 31.9155 29.1913 31.9331 29.386C31.9506 29.5808 31.9136 29.7766 31.8262 29.9515C31.7387 30.1264 31.6043 30.2734 31.438 30.3762C31.2716 30.479 31.08 30.5335 30.8844 30.5335ZM22.4614 24.2162C23.3638 24.2162 24.2459 23.9486 24.9962 23.4473C25.7465 22.946 26.3313 22.2334 26.6766 21.3997C27.0219 20.566 27.1123 19.6487 26.9362 18.7636C26.7602 17.8786 26.3256 17.0656 25.6876 16.4276C25.0495 15.7895 24.2365 15.355 23.3515 15.1789C22.4665 15.0029 21.5491 15.0932 20.7154 15.4386C19.8817 15.7839 19.1692 16.3687 18.6678 17.119C18.1665 17.8693 17.8989 18.7514 17.8989 19.6537C17.8989 20.8638 18.3796 22.0243 19.2353 22.8799C20.0909 23.7355 21.2514 24.2162 22.4614 24.2162Z" fill="#8A1538"/>
</svg>
