<svg width="159" height="108" viewBox="0 0 159 108" fill="none" xmlns="http://www.w3.org/2000/svg">
<g opacity="0.23">
<path d="M56.579 61.4194L56.8895 60.1706C57.2 60.2747 57.5104 60.4828 57.9244 60.6909C58.3384 60.8991 58.7523 61.1072 59.1663 61.3153C59.6838 61.5235 60.2012 61.6275 60.8222 61.8357C61.4431 61.9397 62.1676 62.0438 62.892 62.0438C64.0304 62.0438 65.1688 61.8357 66.2037 61.5235C67.2386 61.2113 68.0666 60.6909 68.791 60.1706C69.5154 59.5462 70.1364 58.8177 70.5503 57.9852C70.9643 57.1527 71.1713 56.2161 71.1713 55.2795C71.1713 54.2388 70.9643 53.3022 70.6538 52.5738C70.2399 51.8453 69.8259 51.2209 69.205 50.8047C68.584 50.2843 67.9631 49.9721 67.2386 49.6599C66.5142 49.3477 65.8932 49.1396 65.1688 48.9315L62.478 48.203C61.1326 47.7867 60.2012 47.3705 59.4768 46.7461C58.8558 46.1217 58.4419 45.2891 58.4419 44.1444C58.4419 42.7916 58.8558 41.6468 59.6838 40.9184C60.5117 40.0858 61.6501 39.7736 62.9955 39.7736C64.2374 39.7736 65.1688 39.9818 65.8932 40.398C66.6177 40.8143 67.2386 41.3346 67.7561 41.959C68.2735 42.5834 68.584 43.2078 68.8945 43.9363C69.1015 44.6647 69.4119 45.2891 69.5154 45.9135H70.5503L70.2399 38.9411H69.205L68.791 39.9818C68.4805 39.8777 68.17 39.6696 67.8596 39.4614C67.5491 39.2533 67.1351 39.1492 66.6177 38.9411C66.1002 38.837 65.5828 38.6289 65.0653 38.5248C64.4444 38.4208 63.8234 38.3167 63.099 38.3167C62.271 38.3167 61.3396 38.4208 60.5117 38.6289C59.5803 38.837 58.8558 39.2533 58.0279 39.7736C57.3035 40.294 56.6825 41.0224 56.2686 41.959C55.7511 42.7916 55.5441 43.9363 55.5441 45.1851C55.5441 46.3298 55.7511 47.2664 56.1651 47.9949C56.579 48.7233 57.0965 49.3477 57.7174 49.764C58.3384 50.1803 58.9593 50.5965 59.5803 50.8047C60.2012 51.0128 60.8222 51.2209 61.2361 51.325L63.5129 51.9494C64.4444 52.2616 65.2723 52.4697 65.8932 52.7819C66.5142 53.0941 66.9282 53.4063 67.2386 53.8226C67.5491 54.2388 67.7561 54.551 67.8596 54.9673C67.9631 55.3836 68.0666 55.9039 68.0666 56.3202C68.0666 56.8405 67.9631 57.2568 67.7561 57.7771C67.5491 58.2974 67.2386 58.7137 66.8247 59.1299C66.4107 59.5462 65.8932 59.8584 65.1688 60.0665C64.5479 60.2747 63.7199 60.4828 62.7885 60.4828C61.6501 60.4828 60.7187 60.2747 59.9942 59.9625C59.2698 59.6503 58.6489 59.1299 58.1314 58.6096C57.6139 57.9852 57.2 57.3608 56.993 56.6324C56.6825 55.9039 56.4755 55.1754 56.2686 54.447H55.2336L55.4406 61.3153L56.579 61.4194ZM78.2087 61.4194V60.3787L77.2773 60.2747C76.8633 60.2747 76.5528 60.1706 76.3459 59.9625C76.1389 59.8584 75.9319 59.5462 75.9319 59.1299C75.9319 58.9218 75.9319 58.7137 76.0354 58.5055C76.1389 58.2974 76.2424 57.9852 76.3459 57.673L78.0017 53.6144H86.902L88.4543 57.3608C88.6613 57.9852 88.8683 58.5056 88.8683 58.9218C88.8683 59.7543 88.3508 60.1706 87.2124 60.1706L86.1775 60.2747V61.3153H95.6987V60.2747L94.6638 60.1706C94.0429 60.1706 93.6289 59.9625 93.4219 59.6503C93.2149 59.3381 92.9045 58.9218 92.6975 58.2974L84.2112 38.5248H82.5553L74.5865 57.7771C74.276 58.4015 73.9656 59.0259 73.6551 59.4421C73.2411 59.8584 72.8272 60.1706 72.2062 60.1706L71.3783 60.2747V61.3153H78.2087V61.4194ZM82.2449 42.9997L86.281 52.2616H78.5192L82.2449 42.9997ZM105.841 61.4194C109.36 61.4194 112.05 60.8991 113.913 59.8584C115.776 58.8177 116.707 57.1527 116.707 54.9673C116.707 54.2388 116.604 53.6144 116.293 52.99C116.086 52.3656 115.673 51.9494 115.362 51.5331C114.948 51.1169 114.534 50.7006 114.017 50.4925C113.499 50.1803 113.085 49.9721 112.568 49.764C112.154 49.5559 111.636 49.4518 111.326 49.3477C110.912 49.2437 110.601 49.2437 110.394 49.2437C110.705 49.1396 111.015 49.0355 111.533 48.8274C112.05 48.6193 112.568 48.3071 113.085 47.8908C113.603 47.4745 114.017 46.9542 114.431 46.3298C114.845 45.7054 114.948 44.9769 114.948 44.0404C114.948 42.7916 114.638 41.855 114.12 41.1265C113.603 40.398 112.878 39.8777 112.05 39.5655C111.222 39.2533 110.291 39.0452 109.36 38.9411C108.428 38.837 107.497 38.837 106.669 38.837H97.4581V39.8777L98.8035 39.9818C99.4244 39.9818 99.7349 40.1899 100.045 40.398C100.252 40.6062 100.356 41.0224 100.356 41.7509V58.6096C100.356 59.3381 100.252 59.7543 100.045 59.9625C99.8384 60.1706 99.4244 60.2747 98.8035 60.3787L97.4581 60.4828V61.5235L105.841 61.4194ZM103.771 50.3884H106.358C107.186 50.3884 108.014 50.4925 108.842 50.5965C109.67 50.7006 110.394 51.0128 111.015 51.325C111.636 51.7412 112.154 52.1575 112.568 52.7819C112.982 53.4063 113.189 54.2388 113.189 55.2795C113.189 56.2161 113.085 56.9446 112.775 57.569C112.464 58.1933 112.05 58.7137 111.533 59.0259C111.015 59.4421 110.291 59.6503 109.567 59.8584C108.842 60.0665 108.014 60.0665 107.083 60.0665C106.358 60.0665 105.841 59.9625 105.427 59.8584C105.013 59.7543 104.702 59.5462 104.495 59.234C104.288 58.9218 104.185 58.6096 104.082 58.1933C103.978 57.7771 103.978 57.3608 103.978 56.8405L103.771 50.3884ZM103.771 39.9818H105.53C107.704 39.9818 109.256 40.294 110.291 41.0224C111.326 41.7509 111.843 42.6875 111.843 44.0404C111.843 44.8729 111.74 45.4973 111.533 46.1217C111.326 46.642 111.015 47.1623 110.601 47.4745C110.187 47.7867 109.774 48.0989 109.36 48.3071C108.842 48.5152 108.428 48.6193 107.911 48.7233C107.497 48.8274 107.083 48.8274 106.462 48.9315C105.944 49.0355 105.323 49.0355 104.599 49.0355H103.771V39.9818ZM128.505 61.4194V60.3787L126.953 60.2747C126.332 60.2747 125.918 60.0665 125.711 59.8584C125.504 59.6503 125.401 59.1299 125.401 58.4015V41.855C125.401 41.1265 125.504 40.7102 125.711 40.398C125.918 40.1899 126.332 39.9818 126.953 39.9818L128.505 39.8777V38.837H119.191V39.8777L120.537 39.9818C121.158 39.9818 121.468 40.1899 121.779 40.398C121.985 40.6062 122.089 41.1265 122.089 41.855V58.4015C122.089 59.1299 121.985 59.5462 121.779 59.8584C121.572 60.0665 121.158 60.2747 120.537 60.2747L119.191 60.3787V61.4194H128.505ZM132.645 61.4194L132.956 60.1706C133.266 60.2747 133.577 60.4828 133.99 60.6909C134.404 60.8991 134.818 61.1072 135.232 61.3153C135.75 61.5235 136.267 61.6275 136.888 61.8357C137.509 61.9397 138.234 62.0438 138.958 62.0438C140.096 62.0438 141.235 61.8357 142.27 61.5235C143.305 61.2113 144.133 60.6909 144.857 60.1706C145.581 59.5462 146.202 58.8177 146.616 57.9852C147.03 57.1527 147.237 56.2161 147.237 55.2795C147.237 54.2388 147.03 53.3022 146.72 52.5738C146.306 51.8453 145.892 51.2209 145.271 50.8047C144.65 50.2843 144.029 49.9721 143.305 49.6599C142.58 49.3477 141.959 49.1396 141.235 48.9315L138.544 48.203C137.199 47.7867 136.267 47.3705 135.543 46.7461C134.922 46.1217 134.508 45.2891 134.508 44.1444C134.508 42.7916 134.922 41.6468 135.75 40.9184C136.578 40.0858 137.716 39.7736 139.062 39.7736C140.303 39.7736 141.235 39.9818 142.063 40.398C142.787 40.8143 143.408 41.3346 143.926 41.959C144.443 42.5834 144.754 43.2078 145.064 43.9363C145.271 44.6647 145.581 45.2891 145.685 45.9135H146.72L146.409 38.9411H145.375L144.961 39.9818C144.65 39.8777 144.34 39.6696 144.029 39.4614C143.719 39.2533 143.305 39.1492 142.787 38.9411C142.27 38.837 141.752 38.6289 141.235 38.5248C140.614 38.4208 139.993 38.3167 139.269 38.3167C138.441 38.3167 137.509 38.4208 136.681 38.6289C135.75 38.837 134.922 39.2533 134.197 39.7736C133.473 40.294 132.852 41.0224 132.438 41.959C131.921 42.7916 131.714 43.9363 131.714 45.1851C131.714 46.3298 131.921 47.2664 132.335 47.9949C132.749 48.7233 133.266 49.3477 133.887 49.764C134.508 50.1803 135.129 50.5965 135.75 50.8047C136.371 51.0128 136.992 51.2209 137.406 51.325L139.682 51.9494C140.614 52.2616 141.442 52.4697 142.063 52.7819C142.684 53.0941 143.098 53.4063 143.408 53.8226C143.719 54.2388 143.926 54.551 144.029 54.9673C144.133 55.3836 144.236 55.9039 144.236 56.3202C144.236 56.8405 144.133 57.2568 143.926 57.7771C143.719 58.2974 143.408 58.7137 142.994 59.1299C142.58 59.5462 142.063 59.8584 141.338 60.0665C140.717 60.2747 139.889 60.4828 138.958 60.4828C137.82 60.4828 136.888 60.2747 136.164 59.9625C135.439 59.6503 134.818 59.1299 134.301 58.6096C133.783 57.9852 133.37 57.3608 133.163 56.6324C132.852 55.9039 132.645 55.1754 132.438 54.447H131.403L131.61 61.3153L132.645 61.4194ZM151.687 45.3932C152.101 45.6013 152.515 45.7054 153.033 45.7054C153.55 45.7054 153.964 45.6013 154.378 45.3932C154.792 45.1851 155.206 44.9769 155.517 44.6647C155.827 44.3525 156.034 43.9363 156.241 43.52C156.448 43.1038 156.552 42.6875 156.552 42.1672C156.552 41.6468 156.448 41.2306 156.241 40.8143C156.034 40.398 155.827 39.9818 155.517 39.6696C155.206 39.3574 154.792 39.1492 154.378 38.9411C153.964 38.733 153.55 38.6289 153.033 38.6289C152.515 38.6289 152.101 38.733 151.687 38.9411C151.274 39.1492 150.86 39.3574 150.549 39.6696C150.239 39.9818 150.032 40.398 149.825 40.8143C149.618 41.2306 149.514 41.6468 149.514 42.1672C149.514 42.6875 149.618 43.1038 149.825 43.52C150.032 43.9363 150.239 44.3525 150.549 44.6647C150.963 44.8729 151.274 45.1851 151.687 45.3932ZM150.239 43.3119C150.032 42.8956 150.032 42.5834 150.032 42.0631C150.032 41.6468 150.135 41.2306 150.239 40.8143C150.446 40.398 150.653 40.0858 150.86 39.7736C151.17 39.4614 151.48 39.2533 151.791 39.1492C152.205 38.9411 152.515 38.9411 152.929 38.9411C153.343 38.9411 153.757 39.0452 154.068 39.1492C154.482 39.3574 154.792 39.5655 154.999 39.7736C155.31 40.0858 155.517 40.398 155.62 40.8143C155.827 41.2306 155.827 41.6468 155.827 42.0631C155.827 42.4794 155.724 42.8956 155.62 43.3119C155.413 43.7282 155.206 44.0404 154.999 44.3525C154.689 44.6647 154.378 44.8729 154.068 44.9769C153.654 45.1851 153.343 45.1851 152.929 45.1851C152.515 45.1851 152.101 45.081 151.791 44.9769C151.377 44.7688 151.067 44.5607 150.86 44.3525C150.653 44.0404 150.446 43.7282 150.239 43.3119ZM153.033 43.9363V43.6241C152.929 43.6241 152.929 43.6241 152.929 43.6241H152.826C152.722 43.6241 152.722 43.6241 152.722 43.6241C152.722 43.6241 152.722 43.52 152.722 43.416V42.2712C152.929 42.2712 153.136 42.3753 153.24 42.4794C153.447 42.5834 153.55 42.7916 153.654 42.8956L154.171 43.7282H155.103V43.6241C154.999 43.6241 154.896 43.6241 154.792 43.52C154.689 43.52 154.689 43.416 154.585 43.416C154.482 43.3119 154.482 43.3119 154.378 43.2078C154.275 43.1038 154.275 42.9997 154.171 42.8956C154.068 42.7916 153.964 42.6875 153.964 42.5834C153.861 42.4794 153.861 42.4794 153.861 42.3753L153.757 42.2712L153.654 42.1672C153.757 42.1672 153.757 42.1672 153.861 42.0631C153.964 42.0631 154.068 41.959 154.171 41.855C154.275 41.7509 154.378 41.6468 154.378 41.5428C154.482 41.4387 154.482 41.3346 154.482 41.1265C154.482 40.9184 154.482 40.8143 154.378 40.7102C154.275 40.6062 154.171 40.5021 154.068 40.398C153.964 40.294 153.757 40.294 153.654 40.1899C153.447 40.1899 153.343 40.1899 153.24 40.1899H151.584V40.5021H151.894C151.998 40.5021 151.998 40.5021 152.101 40.5021C152.101 40.5021 152.101 40.6062 152.101 40.7102V43.3119C152.101 43.416 152.101 43.52 152.101 43.52H151.998H151.687V43.7282L153.033 43.9363ZM152.515 40.8143C152.515 40.7102 152.515 40.6062 152.515 40.6062C152.515 40.5021 152.619 40.5021 152.722 40.5021H152.826C153.136 40.5021 153.343 40.6062 153.447 40.7102C153.654 40.8143 153.654 41.0224 153.654 41.3346C153.654 41.4387 153.654 41.6468 153.55 41.7509C153.447 41.855 153.447 41.959 153.343 41.959C153.24 42.0631 153.136 42.0631 153.033 42.0631C152.929 42.0631 152.826 42.0631 152.722 42.0631H152.412L152.515 40.8143Z" fill="#026937"/>
<path d="M29.6715 46.7462C29.361 46.6422 28.74 46.434 28.6366 46.8503C28.5331 47.1625 28.8435 47.4747 28.947 47.7869C29.0505 48.0991 28.8435 48.5153 29.154 48.8275C29.4645 49.2438 29.9819 48.6194 30.2924 48.4113C30.4994 48.2031 30.3959 47.7869 30.2924 47.4747C30.0854 47.1625 29.9819 46.8503 29.6715 46.7462Z" fill="#026937"/>
<path d="M27.1878 46.8502C26.7738 46.9543 26.2564 46.8502 25.9459 47.0584C25.6354 47.2665 25.4285 48.099 25.8424 48.3071C26.0494 48.4112 26.2564 48.099 26.3599 47.8909C26.5669 47.6828 26.7738 47.7868 26.8773 47.9949C27.0843 48.5153 26.8773 49.0356 26.8773 49.5559C26.8773 49.7641 26.9808 49.9722 27.0843 49.9722C27.2913 49.9722 27.3948 49.9722 27.4983 49.8681C28.0157 49.1397 27.3948 48.099 28.1192 47.3706C28.3262 47.1624 28.2227 46.8502 28.0157 46.7462C27.7053 46.7462 27.4983 46.8502 27.1878 46.8502Z" fill="#026937"/>
<path d="M31.0167 44.0405C30.8097 43.9364 30.7062 44.1446 30.6027 44.3527C30.4992 44.5608 30.2922 44.6649 30.0853 44.873C29.6713 45.1852 29.8783 45.8096 30.2922 46.0178C30.8097 46.2259 31.5341 46.1218 31.4307 45.3934C31.5341 44.873 31.5341 44.2486 31.0167 44.0405Z" fill="#026937"/>
<path d="M27.3942 35.7151C27.0838 35.5069 26.7733 35.5069 26.4628 35.7151C26.3593 35.8191 26.1523 35.9232 25.9454 35.9232C25.8419 35.9232 25.6349 36.0273 25.6349 36.1313C25.5314 36.4435 25.9454 36.6517 26.0488 36.8598C26.2558 37.172 26.3593 37.4842 26.6698 37.5882C27.0838 37.9004 27.8082 37.7964 28.2222 37.3801C28.3257 37.0679 28.0152 36.8598 27.9117 36.5476C27.7047 36.3395 27.6012 36.0273 27.3942 35.7151Z" fill="#026937"/>
<path d="M32.4652 47.6827C32.1548 47.4746 31.7408 47.6827 31.5338 47.9949C31.4303 48.3071 31.4303 48.7234 31.7408 48.8274C32.0513 48.9315 32.4652 48.8274 32.4652 48.5152C32.5687 48.3071 32.7757 47.8908 32.4652 47.6827Z" fill="#026937"/>
<path d="M24.6003 47.6827C24.3933 47.8909 24.6003 48.203 24.6003 48.4112C24.6003 48.7234 24.3933 49.0356 24.2898 49.3478C24.0828 49.66 23.9793 50.0762 24.1863 50.3884C24.3933 50.9088 25.3247 51.1169 25.6352 50.4925C25.8422 49.66 25.7387 48.7234 25.3247 47.9949C25.1177 47.8909 24.9107 47.4746 24.6003 47.6827Z" fill="#026937"/>
<path d="M24.1867 46.538C24.3937 46.4339 24.8077 46.2258 24.4972 46.0177C24.1867 45.8095 23.8763 46.0177 23.5658 45.9136C23.2553 45.8095 22.6344 45.3933 22.4274 45.8095C22.1169 46.8502 23.6693 46.7461 24.1867 46.538Z" fill="#026937"/>
<path d="M23.1507 38.7332C22.7368 38.525 22.3228 38.525 21.8054 38.525C21.3914 38.525 20.9774 38.2128 20.5635 38.1088C20.253 38.0047 20.046 38.1088 19.839 38.3169C19.632 38.525 19.7355 38.8372 19.9425 38.9413C20.3565 39.2535 21.0809 39.0454 21.4949 39.3576C21.8054 39.5657 21.4949 39.8779 21.2879 39.9819C20.9774 40.086 20.667 39.9819 20.46 39.9819C19.9425 39.9819 19.4251 40.1901 19.839 40.7104C20.046 40.9185 20.253 41.0226 20.3565 41.1267C20.46 41.2307 20.5635 41.4389 20.7704 41.5429C20.9774 41.8551 21.5984 42.4795 21.8054 41.7511C21.9089 41.3348 21.5984 40.6063 22.1158 40.3982C22.5298 40.1901 23.1507 40.6063 23.5647 40.3982C24.2892 40.086 23.4612 38.9413 23.1507 38.7332Z" fill="#026937"/>
<path d="M18.2881 39.2534C17.9776 39.1493 18.0811 38.9412 18.1846 38.7331C18.2881 38.5249 18.2881 38.3168 18.0811 38.2127C17.8741 38.1087 17.5636 38.0046 17.3566 37.9005C17.1497 37.7965 16.9427 37.6924 16.6322 37.5883C16.2182 37.3802 15.5973 37.6924 15.7008 38.2127C15.8043 38.629 16.3217 38.7331 16.7357 38.9412C17.1497 39.2534 17.0462 39.8778 17.2532 40.294C17.4601 40.7103 17.8741 41.1266 18.3916 41.0225C18.8055 41.0225 19.0125 40.5022 19.0125 40.0859C19.0125 39.8778 19.0125 39.6696 18.8055 39.4615C18.702 39.2534 18.495 39.3575 18.2881 39.2534Z" fill="#026937"/>
<path d="M23.6689 51.5333C23.4619 51.4292 23.3584 51.4292 23.1514 51.3251C22.8409 51.3251 22.5305 51.4292 22.3235 51.5333C22.3235 51.5333 22.427 51.6373 22.427 51.7414C22.5305 52.0536 22.634 52.3658 22.8409 52.5739C23.0479 52.7821 23.2549 53.0943 23.5654 53.0943C23.8759 53.0943 24.0828 52.7821 24.1863 52.5739C24.3933 52.2617 24.3933 51.9495 24.6003 51.7414C24.7038 51.6373 24.8073 51.6373 24.8073 51.5333C24.8073 51.5333 24.3933 51.4292 24.1863 51.5333C24.0828 51.5333 23.8759 51.5333 23.6689 51.5333Z" fill="#026937"/>
<path d="M22.5305 49.2438C22.5305 49.0357 22.5305 48.8276 22.427 48.6194C22.427 48.4113 22.3235 48.2032 22.22 48.0991C22.1165 47.995 22.013 47.995 21.8061 47.995C21.5991 47.995 21.3921 47.891 21.1851 47.891C20.7711 47.7869 20.3572 47.6828 19.9432 47.891C19.8397 47.891 19.8397 48.2032 19.9432 48.4113C20.0467 48.5154 20.1502 48.7235 20.2537 48.8276C20.4607 49.1398 20.6677 49.556 20.8746 49.8682C20.9781 50.0764 21.0816 50.1804 21.1851 50.3886C21.2886 50.4926 21.2886 50.7008 21.4956 50.8048C21.5991 50.9089 21.8061 50.9089 21.9096 50.9089C22.013 50.9089 22.013 50.9089 22.1165 50.9089C22.634 50.7008 22.5305 49.2438 22.5305 49.2438Z" fill="#026937"/>
<path d="M23.2542 47.7868C22.9437 48.203 23.3577 48.6193 23.4612 49.0356C23.4612 49.1396 23.6682 49.764 23.8752 49.5559C24.2891 49.2437 24.0821 48.7234 24.0821 48.3071C24.0821 48.099 24.0821 47.7868 23.8752 47.6827C23.6682 47.5786 23.3577 47.6827 23.2542 47.7868Z" fill="#026937"/>
<path d="M39.1926 45.289C39.0891 45.393 38.7786 45.289 38.5716 45.289C38.2612 45.289 37.9507 45.1849 37.8472 44.7686C37.7437 44.4564 38.1577 44.1442 38.4681 44.2483C38.6751 44.2483 38.7786 44.4564 38.8821 44.5605C38.9856 44.6646 39.1926 44.6646 39.1926 44.8727C39.2961 44.9768 39.3996 45.0808 39.1926 45.289ZM12.8023 46.4337C13.2163 46.3296 13.2163 45.8093 13.4233 45.6012C13.7337 45.289 13.9407 45.9134 14.2512 45.9134C14.4582 45.9134 14.6652 45.9134 14.6652 46.2256C14.6652 46.5378 14.3547 46.6418 14.1477 46.7459C13.6302 46.85 13.1128 46.85 12.8023 46.4337ZM42.0903 50.7004C41.2624 51.0126 40.124 50.7004 39.3996 50.1801C39.0891 49.9719 38.7786 49.6597 38.5716 49.3475C38.4681 49.1394 38.3647 48.8272 38.0542 48.7231C37.6402 48.6191 37.9507 49.4516 38.0542 49.5557C38.1577 49.8679 38.4681 50.4923 38.0542 50.7004C37.5367 50.9085 37.3297 50.2841 37.2262 49.8679C36.7088 48.4109 35.4669 50.5963 35.0529 51.0126C34.5355 51.4289 33.9145 51.5329 33.3971 51.2207C32.8796 50.8045 32.5691 50.2841 32.0517 49.8679C30.9133 49.0353 26.7736 51.0126 27.3946 55.2793C27.4981 55.6956 27.4981 56.1118 27.6016 56.424C28.0155 58.0891 28.74 59.0257 29.1539 59.442C29.7749 59.9623 31.1203 59.8582 31.1203 60.3786C31.1203 60.5867 30.8098 60.6908 30.7063 60.6908C30.6028 60.6908 30.0854 60.8989 29.7749 60.6908C29.1539 60.1704 28.74 60.6908 28.533 60.4826C28.0155 60.0664 27.6016 59.2338 27.1876 58.2972C27.1876 58.6094 26.1527 55.4874 26.0492 55.1752C25.8422 54.759 25.6352 54.2386 25.3248 53.9265C25.0143 53.6143 24.4968 53.5102 24.1864 53.7183C23.7724 53.9265 23.8759 54.5508 23.9794 54.9671C24.1864 55.6956 24.4968 56.32 24.7038 57.0484C25.0143 57.7769 25.1178 58.6094 25.3248 59.3379C25.4282 59.6501 25.9457 61.0029 25.1178 60.7948C24.8073 60.6908 24.4968 60.3786 24.2898 60.0664C24.0829 59.7542 24.0829 59.442 24.0829 59.0257C24.0829 58.7135 24.1864 57.881 23.6689 57.881C23.2549 57.881 22.7375 58.4013 22.634 58.8176C22.5305 59.3379 23.1514 59.6501 23.2549 60.1704C23.2549 60.4826 23.048 60.7948 22.7375 60.7948C22.427 60.7948 22.1165 60.6908 21.8061 60.4826C21.7026 60.7948 21.3921 61.2111 20.9781 61.0029C20.6677 60.8989 20.5642 60.5867 20.2537 60.4826C19.7362 60.2745 19.2188 61.4192 18.5978 60.5867C18.0804 60.0664 19.7362 59.8582 20.4607 59.546C21.0816 59.2338 21.5991 58.6094 22.013 58.0891C22.427 57.4647 22.427 56.6322 22.427 55.9037C22.427 55.0712 22.3235 54.1346 22.22 53.3021C22.22 52.7817 22.22 52.0533 21.8061 51.637C21.4956 51.637 21.1851 51.637 20.9781 51.7411C20.6677 51.7411 20.3572 51.8451 19.9432 51.9492C19.7362 52.0533 19.3223 52.0533 19.1153 51.9492C18.9083 51.7411 19.1153 51.5329 19.3223 51.4289C19.5292 51.2207 19.8397 51.2207 20.0467 51.0126C20.2537 50.8045 20.2537 50.3882 20.1502 50.076C19.9432 49.4516 19.3223 48.8272 18.8048 48.515C18.2874 48.2028 17.6664 47.9947 17.149 48.515C16.735 49.0353 16.942 49.7638 17.3559 50.1801C17.5629 50.3882 17.9769 50.5963 18.1839 50.8045C18.3908 51.0126 18.7013 51.3248 18.2874 51.4289C17.9769 51.5329 17.6664 51.2207 17.4594 51.0126C17.149 50.8045 16.735 50.7004 16.4245 50.7004C15.8036 50.5963 15.0791 50.8045 14.7687 51.3248C14.6652 51.5329 14.5617 51.637 14.6652 51.8451C14.6652 51.9492 14.7687 52.1573 14.6652 52.2614C14.5617 52.3655 14.3547 52.3655 14.2512 52.3655C13.9407 52.4695 13.5268 52.5736 13.4233 52.6777C13.1128 52.7817 12.8023 52.9899 12.4918 53.198C12.1814 53.5102 11.5604 53.6143 11.3534 52.9899C11.1465 52.5736 11.043 51.637 10.422 51.637C10.0081 51.637 9.80107 51.9492 9.38711 51.9492C9.07664 51.9492 8.76616 51.8451 8.55918 51.637C8.14522 51.3248 7.73125 50.8045 7.83474 50.1801C7.93823 49.4516 8.86965 49.7638 9.28362 49.9719C9.90457 50.2841 10.422 50.9085 11.043 51.3248C11.4569 51.7411 11.9744 52.0533 12.5953 52.0533C12.9058 52.1573 13.7337 51.9492 13.5268 51.4289C13.4233 51.1167 13.0093 50.9085 12.9058 50.5963C12.6988 49.9719 13.6302 50.076 13.9407 50.076C14.3547 50.1801 15.0791 50.2841 15.0791 49.7638C15.0791 49.1394 14.4582 48.8272 13.9407 48.7231C13.3198 48.6191 12.4918 48.8272 12.0779 48.2028C11.6639 47.5784 12.6988 47.2662 13.1128 47.2662C13.4233 47.2662 13.8372 47.3703 14.1477 47.5784C14.4582 47.7865 14.6652 47.9947 14.9756 48.2028C15.2861 48.4109 15.5966 48.515 15.9071 48.3069C16.114 48.2028 16.2175 47.8906 16.114 47.6825C15.9071 47.2662 15.3896 47.0581 15.1826 46.6418C15.0791 46.3296 15.1826 46.0174 15.4931 45.9134C15.8036 45.8093 16.114 45.9134 16.321 46.1215C16.8385 46.5378 17.0455 47.2662 17.6664 47.4743C17.9769 47.5784 18.3908 47.6825 18.5978 47.3703C18.8048 47.1622 18.5978 46.85 18.2874 46.7459C17.9769 46.5378 17.3559 46.4337 17.3559 45.9134C17.3559 45.289 17.9769 45.289 18.3908 45.4971C18.7013 45.6012 19.7362 46.5378 20.0467 46.1215C20.1502 45.9134 19.9432 45.6012 19.9432 45.393C19.8397 45.1849 19.8397 44.7686 20.2537 44.7686C20.6677 44.7686 20.7711 45.8093 21.2886 45.7052C21.4956 45.7052 21.4956 45.4971 21.7026 45.393C21.8061 45.289 22.013 45.289 22.1165 45.289C22.427 45.1849 22.634 44.9768 22.9445 44.7686C23.2549 44.6646 23.5654 44.6646 23.9794 44.6646C24.2898 44.6646 24.3933 44.3524 24.7038 44.2483C25.0143 44.0402 25.3248 44.2483 25.5317 44.3524C25.8422 44.4564 26.0492 44.3524 26.0492 44.0402C26.1527 43.832 26.0492 43.5198 26.1527 43.3117C26.2562 42.9995 26.3597 42.7914 26.1527 42.4792C25.9457 42.271 25.6352 42.0629 25.4282 41.7507C25.2213 41.5426 25.1178 41.2304 24.8073 41.2304C24.3933 41.1263 23.7724 41.2304 23.7724 41.7507C23.7724 42.0629 24.0829 42.271 24.3933 42.4792C24.4968 42.4792 24.7038 42.4792 24.7038 42.6873C24.7038 42.7914 24.8073 42.7914 24.8073 42.8954C24.7038 43.3117 24.2898 43.5198 23.8759 43.4158C23.6689 43.4158 23.5654 43.2076 23.3584 43.3117C23.1514 43.4158 23.2549 43.6239 23.1514 43.728C22.9445 44.0402 22.5305 43.728 22.427 43.5198C22.3235 43.4158 22.3235 43.2076 22.1165 42.9995C22.1165 42.9995 21.8061 42.8954 21.7026 42.7914C21.3921 42.4792 20.9781 42.5832 20.5642 42.5832C20.2537 42.5832 19.6327 42.6873 19.8397 43.2076C19.9432 43.6239 20.3572 44.0402 19.8397 44.3524C19.5292 44.6646 19.0118 44.5605 18.7013 44.3524C18.3908 44.1442 18.0804 43.832 17.7699 43.9361C17.4594 43.9361 17.6664 44.2483 17.7699 44.4564C17.9769 44.8727 17.5629 44.8727 17.2524 44.8727C16.8385 44.8727 16.4245 44.7686 16.0105 44.6646C15.7001 44.5605 15.3896 44.3524 15.0791 44.2483C14.7687 44.1442 14.4582 44.2483 14.0442 44.3524C13.6302 44.4564 13.2163 44.4564 12.8023 44.2483C12.4918 44.0402 12.1814 43.832 11.8709 43.728C11.25 43.6239 10.836 43.6239 10.5255 43.3117C10.3185 43.1036 10.3185 42.7914 10.422 42.5832C10.5255 42.271 11.043 42.3751 11.25 42.0629C11.4569 41.7507 11.6639 41.6466 12.0779 41.7507C12.3884 41.8548 12.5953 41.9588 12.6988 42.271C12.8023 42.5832 12.8023 42.7914 12.9058 43.1036C13.1128 43.4158 13.5268 43.4158 13.8372 43.4158C14.2512 43.3117 14.4582 43.4158 14.8721 43.5198C15.1826 43.6239 15.4931 43.6239 15.8036 43.4158C16.0105 43.3117 16.0105 42.9995 15.9071 42.7914C15.7001 42.4792 15.1826 42.3751 14.7687 42.3751C14.1477 42.271 13.7337 41.8548 13.1128 41.6466C12.6988 41.5426 11.8709 41.5426 12.0779 40.9182C12.2849 40.2938 13.3198 40.1897 13.7337 40.71C13.9407 40.9182 14.0442 41.3344 14.4582 41.3344C14.7687 41.4385 15.0791 41.2304 15.2861 41.3344C15.4931 41.3344 16.4245 42.0629 16.6315 41.5426C16.735 41.2304 16.4245 41.0222 16.2175 40.8141C16.0105 40.5019 16.0105 40.1897 16.0105 39.8775C16.0105 39.5653 15.9071 39.2531 15.7001 39.045C15.3896 38.8369 15.0791 38.8369 14.7687 38.6287C14.2512 38.2125 14.2512 37.3799 14.6652 36.9637C14.9756 36.2352 15.7001 36.3393 16.321 36.6515C16.6315 36.8596 16.942 37.0677 17.3559 37.0677C17.6664 37.0677 17.8734 36.7555 17.8734 36.4433C17.7699 35.923 16.942 36.1311 16.528 35.923C16.2175 35.8189 16.114 35.4027 16.4245 35.0905C16.6315 34.8823 16.942 34.7783 17.2524 34.6742C17.7699 34.5701 18.4943 34.7783 18.5978 35.4027C18.7013 35.7149 18.4943 36.8596 19.0118 36.8596C19.3223 36.8596 19.5292 36.5474 19.8397 36.5474C20.0467 36.5474 20.2537 36.8596 20.3572 37.0677C20.8746 37.6921 21.3921 36.7555 22.013 36.6515C22.7375 36.5474 23.048 37.484 23.7724 37.5881C24.0829 37.5881 24.4968 37.484 24.7038 37.7962C24.9108 38.0043 24.9108 38.3165 24.8073 38.5247C24.8073 38.8369 24.8073 39.1491 24.9108 39.4613C25.0143 39.7735 25.3248 39.9816 25.3248 40.2938C25.3248 40.606 25.2213 40.9182 25.4282 41.1263C25.6352 41.3344 26.0492 41.3344 26.2562 41.2304C26.5667 41.1263 26.7736 40.8141 26.7736 40.5019C26.7736 40.2938 26.6701 39.9816 26.7736 39.7735C26.8771 39.4613 27.2911 39.5653 27.3946 39.7735C27.6016 39.8775 27.8085 40.0857 28.119 39.9816C28.6365 39.7735 28.74 38.9409 28.326 38.6287C27.8085 38.2125 27.2911 38.7328 26.8771 39.045C26.5667 39.3572 25.8422 39.7735 25.4282 39.2531C25.0143 38.8369 26.0492 38.6287 26.0492 38.2125C26.0492 37.6921 25.2213 37.484 25.0143 37.1718C24.8073 36.8596 24.9108 36.5474 24.8073 36.3393C24.7038 36.0271 24.4968 35.923 24.1864 35.923C23.7724 35.8189 23.5654 35.6108 23.2549 35.4027C23.048 35.1945 22.7375 35.0905 22.5305 34.8823C22.3235 34.7783 22.1165 34.5701 22.22 34.2579C22.3235 33.9457 22.634 33.8417 22.841 33.9457C23.2549 34.0498 23.6689 34.7783 24.2898 34.5701C24.4968 34.4661 24.7038 34.1539 24.6003 33.8417C24.6003 33.5295 24.2898 33.4254 24.0829 33.3214C23.8759 33.2173 23.5654 33.2173 23.4619 33.0092C23.3584 32.801 23.3584 32.3848 23.5654 32.2807C23.8759 32.1766 24.1864 32.0726 24.4968 32.0726C24.8073 32.1766 25.1178 32.3848 25.4282 32.4888C25.7387 32.697 26.1527 32.697 26.5667 32.5929C26.8771 32.4888 27.1876 32.3848 27.4981 32.4888C27.8085 32.5929 27.8085 33.0092 27.6016 33.2173C27.3946 33.4254 27.1876 33.4254 26.8771 33.3214C26.6701 33.1132 26.4632 33.2173 26.1527 33.2173C25.9457 33.2173 25.4282 33.3214 25.4282 33.6335C25.4282 33.9457 25.7387 34.0498 25.9457 34.2579C26.0492 34.4661 25.9457 34.7783 26.0492 34.9864C26.2562 35.2986 26.7736 34.7783 26.9806 34.5701C27.2911 34.2579 27.912 33.8417 28.0155 34.5701C28.0155 34.9864 28.0155 35.1945 28.4295 35.2986C28.74 35.4027 28.8435 35.7149 28.947 36.0271C29.1539 36.5474 28.8435 37.2759 29.1539 37.5881C29.5679 38.0043 29.9819 37.2759 30.2923 37.0677C30.4993 36.9637 30.8098 36.8596 31.0168 37.0677C31.2238 37.3799 30.9133 37.6921 30.7063 37.7962C30.6028 37.9003 30.3958 38.0043 30.4993 38.2125C30.6028 38.3165 30.7063 38.4206 30.8098 38.3165C31.1203 38.2125 31.3272 38.0043 31.6377 38.2125C31.7412 38.3165 31.9482 38.5247 31.9482 38.6287C32.2587 38.8369 32.5691 38.8369 32.8796 38.7328C33.0866 38.6287 33.1901 38.3165 32.9831 38.1084C32.7761 38.0043 32.5691 37.9003 32.2587 37.9003C31.8447 37.7962 31.4307 37.484 31.5342 36.9637C31.7412 36.5474 32.2587 36.5474 32.5691 36.8596C32.9831 37.1718 33.1901 37.6921 33.6041 38.0043C33.9145 38.2125 34.3285 38.2125 34.639 38.2125C35.0529 38.1084 35.1564 37.7962 34.9494 37.484C34.7425 37.2759 34.5355 37.0677 34.5355 36.7555C34.5355 36.4433 34.639 36.2352 34.846 36.0271C35.1564 35.7149 36.2948 35.0905 36.3983 35.8189C36.3983 36.3393 35.7774 36.8596 35.9844 37.3799C36.2948 38.0043 37.2262 37.6921 37.7437 37.7962C37.9507 37.9003 38.2612 38.1084 38.3647 38.3165C38.3647 38.6287 38.1577 38.8369 37.8472 38.9409C37.2262 39.1491 36.6053 38.8369 36.2948 39.4613C36.1913 39.7735 35.9844 39.9816 35.6739 39.8775C35.3634 39.7735 35.2599 39.4613 34.9494 39.3572C34.639 39.2531 34.432 39.5653 34.3285 39.7735C34.225 39.9816 34.1215 40.2938 33.9145 40.2938C33.6041 40.2938 33.5006 39.8775 33.2936 39.7735C33.0866 39.5653 32.7761 39.3572 32.4657 39.3572C31.7412 39.4613 31.9482 40.2938 32.2587 40.71C32.4657 41.1263 32.8796 41.9588 32.1552 42.167C31.3272 42.3751 31.2238 41.2304 31.2238 40.71C31.1203 40.1897 30.8098 39.4613 30.0854 39.6694C29.7749 39.7735 29.5679 39.9816 29.5679 40.2938C29.6714 40.606 29.8784 40.8141 30.1888 41.1263C30.4993 41.4385 30.8098 41.9588 30.9133 42.4792C31.0168 42.9995 30.4993 43.3117 29.9819 43.1036C29.6714 42.9995 29.5679 42.6873 29.5679 42.3751C29.5679 42.167 29.3609 41.8548 29.1539 41.8548C28.74 41.8548 28.4295 42.3751 28.2225 42.6873C27.912 42.9995 27.4981 42.8954 27.0841 43.1036C26.8771 43.2076 26.7736 43.3117 26.7736 43.5198C26.7736 43.832 26.9806 43.9361 27.2911 44.0402C27.6016 44.1442 27.912 44.3524 28.2225 44.5605C28.533 44.7686 28.74 44.5605 28.8435 44.2483C28.947 43.9361 29.1539 43.832 29.4644 43.728C29.7749 43.6239 30.1888 43.6239 30.4993 43.6239C30.9133 43.5198 31.2238 43.4158 31.6377 43.5198C31.9482 43.6239 32.1552 43.832 32.4657 43.9361C33.2936 44.1442 33.2936 43.2076 33.5006 42.6873C33.6041 42.271 33.7075 41.9588 33.9145 41.5426C34.018 41.2304 34.1215 41.0222 34.432 40.8141C35.0529 40.5019 35.5704 41.0222 35.5704 41.6466C35.5704 42.167 35.1564 42.5832 35.1564 43.1036C35.1564 43.3117 35.3634 43.5198 35.5704 43.6239C35.7774 43.6239 35.9844 43.5198 36.0878 43.3117C36.3983 42.8954 36.6053 42.3751 37.1228 42.0629C37.6402 41.7507 38.2612 41.7507 38.7786 41.9588C39.1926 42.167 39.71 42.6873 39.3996 43.2076C39.1926 43.6239 38.5716 43.728 38.1577 43.6239C37.6402 43.6239 37.0193 43.4158 36.6053 43.728C35.8809 44.1442 36.3983 44.8727 36.9158 45.289C37.1228 45.393 38.1577 46.2256 37.6402 46.4337C37.3297 46.5378 37.1228 46.4337 37.0193 46.2256C36.8123 46.0174 36.7088 45.9134 36.3983 45.8093C36.0878 45.7052 36.0878 45.393 35.9844 45.0808C35.9844 44.7686 35.7774 44.5605 35.4669 44.4564C34.9494 44.2483 34.3285 44.2483 33.811 44.4564C33.5006 44.5605 33.3971 44.9768 33.6041 45.1849C33.811 45.393 34.1215 45.6012 34.3285 45.8093C34.639 46.0174 34.9494 46.2256 35.3634 46.2256C35.6739 46.3296 35.9844 46.3296 36.2948 46.5378C36.5018 46.7459 36.6053 47.0581 36.2948 47.1621C35.9844 47.3703 35.6739 47.0581 35.4669 46.85C35.2599 46.6418 34.9494 46.4337 34.639 46.6418C34.432 46.7459 34.3285 47.1621 34.018 47.1621C33.7075 47.1621 33.6041 46.85 33.5006 46.6418C33.3971 46.4337 33.0866 46.3296 32.7761 46.3296C32.2587 46.4337 32.1552 47.0581 32.4657 47.4743C32.8796 48.0987 33.7075 47.7865 34.3285 47.9947C34.5355 48.0987 35.6739 48.3069 35.0529 48.6191C34.7425 48.8272 34.432 48.7231 34.1215 48.7231C33.811 48.7231 33.6041 49.0353 33.6041 49.3475C33.5006 49.8679 33.7075 50.4923 34.018 50.8045C34.225 51.0126 34.432 51.0126 34.7425 50.9085C35.0529 50.7004 34.9494 50.3882 34.7425 50.1801C34.5355 49.9719 34.3285 49.7638 34.225 49.4516C34.225 49.1394 34.5355 49.2435 34.7425 49.3475C35.0529 49.5557 35.2599 49.8679 35.6739 49.8679C35.9844 49.8679 36.1913 49.5557 36.2948 49.3475C36.3983 48.8272 35.4669 48.0987 35.8809 47.5784C36.2948 47.0581 36.7088 47.9947 37.2262 47.9947C37.5367 47.9947 37.5367 47.5784 37.6402 47.3703C37.8472 47.0581 38.1577 47.0581 38.4681 47.1621C39.0891 47.3703 39.0891 47.9947 39.1926 48.515C39.2961 49.1394 39.5031 49.7638 40.124 50.076C40.8484 50.3882 41.6764 50.1801 42.2973 49.8679C42.6078 49.7638 42.9183 49.9719 42.9183 50.2841C42.8148 50.3882 42.5043 50.5963 42.0903 50.7004ZM40.4345 52.3655C40.4345 52.3655 39.8135 52.8858 39.3996 52.9899C39.0891 53.0939 38.3647 52.9899 38.0542 52.7817C37.7437 52.5736 37.6402 52.2614 37.7437 52.0533C37.8472 51.637 38.2612 51.4289 38.6751 51.3248C38.8821 51.2207 39.0891 51.3248 39.2961 51.3248C39.5031 51.4289 39.6065 51.5329 39.8135 51.637C40.2275 51.8451 40.538 51.4289 40.745 51.2207C40.8484 51.1167 41.3659 51.0126 41.3659 51.3248C41.3659 51.8451 40.745 52.1573 40.4345 52.3655ZM32.7761 66.7266C32.6726 66.9347 32.5691 67.1429 32.4657 67.2469C32.3622 67.4551 32.1552 67.5591 31.9482 67.6632C31.7412 67.7672 31.5342 67.7673 31.2238 67.7673C30.9133 67.7673 30.7063 67.6632 30.4993 67.5591C30.2923 67.4551 30.0854 67.351 29.9819 67.1428C29.8784 66.9347 29.6714 66.7266 29.6714 66.5185C29.5679 66.3103 29.5679 65.9981 29.5679 65.79C29.5679 65.3737 29.6714 64.9575 29.8784 64.5412C30.0854 64.229 30.2923 63.9168 30.6028 63.6046C30.9133 63.3965 31.1203 63.1883 31.4307 62.9802C31.7412 62.8761 32.0517 62.7721 32.2587 62.668H32.3622L32.4657 62.9802C32.2587 63.0843 32.1552 63.1883 31.9482 63.2924C31.7412 63.3965 31.6377 63.5005 31.5342 63.7087C31.4307 63.8127 31.3272 64.0209 31.2238 64.229C31.1203 64.3331 31.1203 64.5412 31.0168 64.7493C31.1203 64.7493 31.1203 64.7493 31.2238 64.6453C31.3272 64.6453 31.5342 64.5412 31.6377 64.5412C31.8447 64.5412 32.1552 64.5412 32.2587 64.6453C32.4657 64.7493 32.5691 64.8534 32.7761 64.9575C32.8796 65.0615 32.9831 65.2697 33.0866 65.4778C33.1901 65.6859 33.1901 65.8941 33.1901 66.1022C32.8796 66.3103 32.8796 66.5185 32.7761 66.7266ZM28.8435 66.8307C28.74 67.0388 28.6365 67.1429 28.533 67.351C28.4295 67.4551 28.2225 67.5591 28.0155 67.6632C27.8085 67.7672 27.6016 67.7673 27.2911 67.7673C27.0841 67.7673 26.8771 67.7672 26.6701 67.6632C26.4632 67.5591 26.2562 67.5591 26.1527 67.4551C26.0492 67.351 25.8422 67.2469 25.8422 67.0388C25.7387 66.9347 25.7387 66.7266 25.7387 66.5185C25.7387 66.3103 25.7387 66.2063 25.8422 66.1022C25.8422 65.9981 25.9457 65.8941 26.0492 65.79C26.1527 65.6859 26.2562 65.5819 26.3597 65.4778C26.4632 65.3737 26.5667 65.3737 26.6701 65.2697C26.4632 65.0615 26.2562 64.9575 26.1527 64.7493C26.0492 64.5412 25.9457 64.3331 25.9457 64.0209C25.9457 63.8127 25.9457 63.6046 26.0492 63.5005C26.1527 63.2924 26.2562 63.1883 26.3597 63.0843C26.4632 62.9802 26.6701 62.8761 26.8771 62.7721C27.2911 62.668 27.6016 62.668 28.0155 62.7721C28.2225 62.7721 28.326 62.8761 28.4295 62.9802C28.533 63.0843 28.6365 63.1883 28.74 63.2924C28.8435 63.3965 28.8435 63.6046 28.8435 63.8127C28.8435 64.0209 28.8435 64.1249 28.74 64.229C28.6365 64.3331 28.533 64.4371 28.533 64.5412C28.4295 64.6453 28.326 64.7493 28.2225 64.7493C28.119 64.7493 28.119 64.8534 28.119 64.8534C28.2225 64.9575 28.326 64.9575 28.533 65.0615C28.6365 65.1656 28.74 65.2697 28.8435 65.3737C28.947 65.4778 29.0504 65.5819 29.0504 65.79C29.1539 65.8941 29.1539 66.1022 29.1539 66.3103C28.947 66.5185 28.947 66.6225 28.8435 66.8307ZM25.0143 66.8307C24.9108 67.0388 24.8073 67.1429 24.7038 67.351C24.4968 67.4551 24.3933 67.5591 24.1864 67.6632C23.9794 67.7672 23.7724 67.7673 23.4619 67.7673C23.2549 67.7673 23.048 67.7672 22.841 67.6632C22.634 67.5591 22.427 67.5591 22.3235 67.4551C22.22 67.351 22.013 67.2469 22.013 67.0388C21.9095 66.9347 21.9095 66.7266 21.9095 66.5185C21.9095 66.3103 21.9095 66.2063 22.013 66.1022C22.1165 65.9981 22.1165 65.8941 22.22 65.79C22.3235 65.6859 22.427 65.5819 22.5305 65.4778C22.634 65.3737 22.7375 65.3737 22.841 65.2697C22.634 65.0615 22.427 64.9575 22.3235 64.7493C21.9095 64.5412 21.9095 64.3331 21.9095 64.0209C21.9095 63.8127 21.9095 63.6046 22.013 63.5005C22.1165 63.2924 22.22 63.1883 22.3235 63.0843C22.427 62.9802 22.634 62.8761 22.841 62.7721C23.2549 62.668 23.5654 62.668 23.9794 62.7721C24.1864 62.7721 24.2898 62.8761 24.3933 62.9802C24.4968 63.0843 24.6003 63.1883 24.7038 63.2924C24.8073 63.3965 24.8073 63.6046 24.8073 63.8127C24.8073 64.0209 24.8073 64.1249 24.7038 64.229C24.6003 64.3331 24.4968 64.4371 24.3933 64.5412C24.2898 64.6453 24.1864 64.7493 24.0829 64.7493L23.9794 64.8534C24.0829 64.9575 24.1864 64.9575 24.3933 65.0615C24.4968 65.1656 24.6003 65.2697 24.7038 65.3737C24.8073 65.4778 24.9108 65.5819 24.9108 65.79C25.0143 65.8941 25.0143 66.1022 25.0143 66.3103C25.1178 66.5185 25.1178 66.6225 25.0143 66.8307ZM21.1851 67.6632H18.4943V67.2469H19.0118C19.1153 67.2469 19.2188 67.2469 19.2188 67.1428C19.2188 67.1428 19.3223 67.0388 19.3223 66.9347V64.3331C19.3223 64.229 19.3223 64.1249 19.2188 64.0209C19.1153 63.9168 19.0118 63.9168 18.8048 63.9168H18.4943V63.3965C18.5978 63.3965 18.7013 63.3965 18.8048 63.2924C18.9083 63.2924 19.0118 63.1883 19.2188 63.1883C19.3223 63.0843 19.4258 63.0843 19.6327 62.9802C19.7362 62.8761 19.8397 62.8761 19.9432 62.7721H20.4607V66.8307C20.4607 67.0388 20.4607 67.0388 20.5642 67.0388C20.5642 67.0388 20.6677 67.1428 20.7711 67.1428H21.2886L21.1851 67.6632ZM9.69758 48.7231C9.80107 48.515 10.0081 48.515 10.215 48.6191C10.5255 48.7231 10.836 48.8272 11.1465 48.9313C11.3534 49.0353 11.5604 49.0353 11.7674 49.1394C11.9744 49.3475 11.8709 49.5557 11.7674 49.7638C11.5604 50.1801 10.9395 50.076 10.629 49.8679C10.422 49.7638 10.215 49.5557 10.0081 49.3475C9.80107 49.2435 9.59409 49.0353 9.69758 48.7231ZM10.1115 46.5378C10.3185 46.3296 10.5255 46.1215 10.7325 45.9134C10.836 45.7052 11.043 45.393 11.3534 45.4971C11.5604 45.6012 11.5604 45.9134 11.5604 46.1215C11.5604 46.4337 11.3534 46.6418 11.25 46.85C11.1465 47.0581 11.3534 47.2662 11.1465 47.3703C10.836 47.4743 10.5255 47.3703 10.215 47.3703C10.0081 47.3703 9.80107 47.3703 9.80107 47.1621C9.69758 46.954 10.0081 46.7459 10.1115 46.5378ZM18.0804 33.2173C18.3908 32.801 19.0118 32.9051 19.4258 33.1132C20.0467 33.4254 20.4607 33.8417 20.8746 34.2579C21.3921 34.6742 21.9095 35.0905 22.3235 35.6108C22.5305 35.7149 22.5305 36.0271 22.427 36.1311C22.22 36.3393 22.013 36.1311 21.8061 36.0271C21.2886 35.7149 20.5642 36.0271 20.0467 35.7149C19.8397 35.6108 19.6327 35.2986 19.8397 35.0905C19.9432 34.9864 20.0467 34.6742 19.8397 34.6742C19.3223 34.4661 18.7013 34.8823 18.2874 34.362C17.8734 34.1539 17.7699 33.5295 18.0804 33.2173ZM28.4295 32.801C28.6365 31.9685 29.7749 31.8644 30.3958 32.2807C30.8098 32.4888 30.7063 33.1132 30.7063 33.4254C30.7063 33.9457 31.0168 34.362 31.2238 34.7783C31.3272 35.1945 31.2238 35.6108 30.8098 35.8189C30.3958 36.0271 30.1888 35.6108 29.9819 35.2986C29.7749 34.8823 29.4644 34.362 29.1539 33.9457C28.8435 33.6335 28.326 33.3214 28.4295 32.801ZM31.8447 33.5295C31.9482 33.3214 32.2587 33.3214 32.4657 33.3214C33.0866 33.3214 33.6041 33.5295 34.018 34.0498C34.225 34.2579 34.5355 34.4661 34.3285 34.7783C34.225 34.9864 33.9145 34.9864 33.7075 34.9864C33.0866 34.9864 32.5691 34.5701 32.0517 34.1539C31.9482 34.0498 31.6377 33.7376 31.8447 33.5295ZM39.5031 46.6418C39.6065 46.4337 39.917 46.4337 40.124 46.5378C40.538 46.5378 41.0554 46.7459 41.2624 47.1621C41.4694 47.4743 41.0554 47.8906 40.6415 47.7865C40.4345 47.6825 40.331 47.4743 40.2275 47.3703C40.0205 47.2662 39.8135 47.2662 39.6065 47.1621C39.5031 46.954 39.3996 46.7459 39.5031 46.6418ZM42.1938 47.7865C42.4008 47.9947 42.5043 48.3069 42.2973 48.515C42.0903 48.6191 41.6764 48.515 41.5729 48.3069C41.2624 47.9947 41.8834 47.4743 42.1938 47.7865ZM25.3248 28.014C13.1128 28.014 3.28113 37.9003 3.28113 50.1801C3.28113 62.3558 13.1128 72.2421 25.3248 72.2421C37.4332 72.2421 47.3684 62.3558 47.3684 50.076C47.2649 37.9003 37.4332 28.014 25.3248 28.014Z" fill="#026937"/>
<path d="M31.1199 65.1658C31.0164 65.1658 30.9129 65.1658 30.9129 65.1658C30.8094 65.1658 30.8094 65.2699 30.7059 65.2699C30.7059 65.374 30.7059 65.478 30.7059 65.5821C30.7059 65.6862 30.7059 65.7902 30.7059 65.8943C30.7059 66.1024 30.7059 66.3106 30.7059 66.4146C30.7059 66.6228 30.7059 66.7268 30.8094 66.8309C30.8094 66.935 30.9129 67.039 31.0164 67.1431C31.1199 67.2472 31.2234 67.2472 31.3269 67.2472C31.5339 67.2472 31.6374 67.1431 31.7408 67.039C31.8443 66.8309 31.8443 66.6228 31.8443 66.2065C31.8443 65.8943 31.8443 65.5821 31.7408 65.374C31.5339 65.2699 31.3269 65.1658 31.1199 65.1658Z" fill="#026937"/>
<path d="M26.7734 64.2293C26.8769 64.3333 26.8769 64.3333 26.9804 64.4374C27.0839 64.4374 27.1874 64.5415 27.2908 64.5415L27.4978 64.6455C27.6013 64.5415 27.7048 64.4374 27.7048 64.3333C27.8083 64.2293 27.8083 64.0211 27.8083 63.813C27.8083 63.6049 27.7048 63.3967 27.6013 63.2927C27.4978 63.1886 27.3943 63.1886 27.1874 63.1886C26.9804 63.1886 26.8769 63.1886 26.7734 63.2927C26.6699 63.3967 26.5664 63.5008 26.5664 63.7089C26.5664 63.813 26.5664 63.9171 26.5664 64.0211C26.6699 64.0211 26.7734 64.1252 26.7734 64.2293Z" fill="#026937"/>
<path d="M23.9792 65.9984C23.8757 65.8944 23.7722 65.8944 23.7722 65.7903C23.6687 65.6862 23.5652 65.6862 23.4617 65.5822L23.0478 65.4781C22.9443 65.5822 22.8408 65.6862 22.7373 65.8944C22.6338 66.1025 22.6338 66.2066 22.6338 66.4147C22.6338 66.7269 22.7373 66.935 22.8408 67.0391C22.9443 67.1431 23.1512 67.2472 23.3582 67.2472C23.5652 67.2472 23.7722 67.1431 23.8757 67.0391C23.9792 66.935 24.0827 66.7269 24.0827 66.5188C24.0827 66.4147 24.0827 66.3106 23.9792 66.2066C24.0827 66.2066 23.9792 66.1025 23.9792 65.9984Z" fill="#026937"/>
<path d="M27.8084 65.9984C27.7049 65.8944 27.6014 65.8944 27.6014 65.7903C27.4979 65.6862 27.3944 65.6862 27.2909 65.5822L26.877 65.4781C26.7735 65.5822 26.67 65.6862 26.5665 65.8944C26.463 66.1025 26.463 66.2066 26.463 66.4147C26.463 66.7269 26.5665 66.935 26.67 67.0391C26.7735 67.1431 26.9805 67.2472 27.1875 67.2472C27.3944 67.2472 27.6014 67.1431 27.7049 67.0391C27.8084 66.935 27.9119 66.7269 27.9119 66.5188C27.9119 66.4147 27.9119 66.3106 27.8084 66.2066C27.9119 66.2066 27.9119 66.1025 27.8084 65.9984Z" fill="#026937"/>
<path d="M22.9443 64.2293C23.0478 64.3333 23.0478 64.3333 23.1513 64.4374C23.2548 64.4374 23.3583 64.5415 23.4617 64.5415L23.6687 64.6455C23.7722 64.5415 23.8757 64.4374 23.8757 64.3333C23.9792 64.2293 23.9792 64.0211 23.9792 63.813C23.9792 63.6049 23.8757 63.3967 23.7722 63.2927C23.6687 63.1886 23.5652 63.1886 23.3583 63.1886C23.1513 63.1886 23.0478 63.1886 22.9443 63.2927C22.8408 63.3967 22.7373 63.5008 22.7373 63.7089C22.7373 63.813 22.7373 63.9171 22.7373 64.0211C22.8408 64.0211 22.9443 64.1252 22.9443 64.2293Z" fill="#026937"/>
</g>
</svg>
