<svg width="46" height="45" viewBox="0 0 46 45" fill="none" xmlns="http://www.w3.org/2000/svg">
<path d="M40.4419 10.2322L23.5959 4.61687C23.3795 4.54462 23.1455 4.54462 22.929 4.61687L6.08299 10.2322C5.8735 10.3022 5.6913 10.4362 5.56218 10.6154C5.43307 10.7946 5.36357 11.0098 5.36353 11.2307V25.2691C5.36353 25.5483 5.47445 25.8161 5.67191 26.0136C5.86936 26.211 6.13716 26.322 6.4164 26.322C6.69564 26.322 6.96345 26.211 7.1609 26.0136C7.35835 25.8161 7.46928 25.5483 7.46928 25.2691V12.6907L14.2568 14.9544C13.4009 16.2193 12.8209 17.6503 12.5545 19.1543C12.2882 20.6582 12.3415 22.2014 12.7109 23.6833C13.0804 25.1653 13.7577 26.5529 14.6989 27.7558C15.6401 28.9587 16.824 29.95 18.1735 30.6651C14.7956 31.811 11.8563 34.1027 9.75052 37.3333C9.62948 37.5651 9.59905 37.8337 9.66516 38.0868C9.73128 38.3398 9.8892 38.5592 10.1082 38.7022C10.3272 38.8452 10.5915 38.9015 10.8498 38.8603C11.108 38.8191 11.3417 38.6832 11.5053 38.4792C14.22 34.3221 18.5034 31.9373 23.2625 31.9373C28.0215 31.9373 32.3049 34.3221 35.0196 38.4792C35.1822 38.6876 35.4172 38.8272 35.678 38.8703C35.9388 38.9134 36.2062 38.8568 36.4272 38.7119C36.6482 38.5669 36.8066 38.3441 36.8709 38.0877C36.9352 37.8314 36.9008 37.5602 36.7744 37.328C34.6686 34.1027 31.7329 31.811 28.3514 30.6598C29.7002 29.9439 30.8833 28.9521 31.8236 27.7488C32.7638 26.5456 33.4403 25.1579 33.8089 23.676C34.1775 22.194 34.2301 20.6511 33.9631 19.1476C33.6961 17.644 33.1156 16.2135 32.2593 14.9491L40.4419 12.2292C40.6513 12.1591 40.8334 12.025 40.9624 11.8459C41.0914 11.6667 41.1608 11.4515 41.1608 11.2307C41.1608 11.0099 41.0914 10.7947 40.9624 10.6155C40.8334 10.4364 40.6513 10.3023 40.4419 10.2322ZM32.0364 21.0576C32.0371 22.4557 31.7036 23.8337 31.0637 25.0768C30.4239 26.3199 29.4963 27.3921 28.3581 28.2041C27.22 29.016 25.9043 29.5443 24.5206 29.7448C23.137 29.9452 21.7255 29.8122 20.4037 29.3566C19.0818 28.9011 17.888 28.1363 16.9217 27.1259C15.9554 26.1155 15.2444 24.8888 14.8482 23.5481C14.452 22.2073 14.3819 20.7912 14.6438 19.4179C14.9057 18.0445 15.492 16.7537 16.3538 15.6528L22.929 17.8445C23.1455 17.9168 23.3795 17.9168 23.5959 17.8445L30.1711 15.6528C31.3816 17.1941 32.0386 19.0977 32.0364 21.0576ZM23.2625 15.737L9.75052 11.2307L23.2625 6.72438L36.7744 11.2307L23.2625 15.737Z" fill="#8A1538"/>
</svg>
