<svg width="41" height="69" viewBox="0 0 41 69" fill="none" xmlns="http://www.w3.org/2000/svg">
<path d="M20.2462 0.0796804C26.714 0.0796804 33.1819 0.0914898 39.6497 0.0678711C40.2669 0.0678711 40.4093 0.26863 40.4093 0.847288C40.3974 10.4955 40.3618 20.132 40.4211 29.7802C40.433 32.3783 40.3974 34.9645 39.982 37.5389C38.997 43.7034 36.493 49.1948 32.4817 53.9894C27.4261 60.0358 21.0176 64.0273 13.5172 66.3774C9.36356 67.6764 5.09121 68.3023 0.735793 68.3377C0.166147 68.3377 0 68.1842 0 67.6056C0.0237353 62.9409 0.0118676 58.2762 0 53.6115C0 53.1509 0.118676 52.9502 0.593381 52.8793C3.09745 52.4896 5.54218 51.8873 7.90384 50.9308C12.9001 48.8996 15.8195 45.1324 17.03 40.0071C17.3742 38.5427 17.4691 37.0193 17.6234 35.5196C17.7065 34.7047 17.6709 34.7047 16.8639 34.7047C11.4997 34.7047 6.14743 34.7047 0.783263 34.7047C0 34.7047 0 34.7047 0 33.9253C0 22.919 0 11.9245 0 0.918145C0 0.0796804 0 0.0796804 0.842601 0.0796804C7.31046 0.0796804 13.7783 0.0796804 20.2462 0.0796804Z" fill="#EBC48B"/>
<path d="M38.9072 1.56885C38.8962 9.76574 38.8715 17.9642 38.9033 26.1694L38.9209 29.7896C38.932 32.2185 38.8999 34.548 38.5713 36.8413L38.501 37.3003V37.3022C37.5882 43.0148 35.3169 48.1116 31.6865 52.5952L31.3311 53.0269C26.6319 58.6469 20.7105 62.4295 13.7461 64.728L13.0684 64.9458C9.31229 66.1204 5.44906 66.7262 1.50195 66.8247C1.51979 62.6302 1.51157 58.4368 1.50098 54.2485C3.69768 53.8716 5.8724 53.3248 7.99902 52.5063L8.4668 52.3208H8.46875C13.787 50.1587 16.9755 46.1616 18.3613 40.8687L18.4902 40.3521V40.3501C18.77 39.1596 18.8999 37.9203 19.0088 36.7778L19.1152 35.6733V35.6714C19.1335 35.4919 19.1612 35.2309 19.1523 34.9927C19.144 34.7676 19.0987 34.2179 18.6514 33.7593C18.2211 33.3184 17.6922 33.2474 17.499 33.2261C17.282 33.2022 17.0301 33.2046 16.8643 33.2046H1.5L1.5 1.57959L20.2461 1.57959C26.4613 1.57959 32.6849 1.58901 38.9072 1.56885Z" stroke="url(#paint0_linear_1_4961)" stroke-opacity="0.7" stroke-width="3"/>
<defs>
<linearGradient id="paint0_linear_1_4961" x1="21.1505" y1="1.76782" x2="21.0822" y2="60.2896" gradientUnits="userSpaceOnUse">
<stop stop-color="#8A1538"/>
<stop offset="1" stop-color="#8A1538" stop-opacity="0"/>
</linearGradient>
</defs>
</svg>
